<svg width="156" height="40" xmlns="http://www.w3.org/2000/svg"><g stroke="null"><path d="M146.571 0H9.535c-.367 0-.73 0-1.095.002-.306.002-.61.008-.919.013A13.215 13.215 0 0 0 5.517.19a6.665 6.665 0 0 0-1.9.627 6.438 6.438 0 0 0-1.62 1.18A6.258 6.258 0 0 0 .82 3.617a6.601 6.601 0 0 0-.625 1.903 12.993 12.993 0 0 0-.179 2.002c-.01.307-.01.615-.015.921V31.56c.005.31.006.61.015.921a12.992 12.992 0 0 0 .18 2.002 6.588 6.588 0 0 0 .624 1.905A6.208 6.208 0 0 0 1.998 38a6.274 6.274 0 0 0 1.618 1.179 6.7 6.7 0 0 0 1.901.63 13.455 13.455 0 0 0 2.004.177c.31.007.613.011.919.011.366.002.728.002 1.095.002H146.57c.36 0 .725 0 1.084-.002.305 0 .617-.004.922-.01a13.279 13.279 0 0 0 2-.178 6.804 6.804 0 0 0 1.908-.63A6.277 6.277 0 0 0 154.103 38a6.395 6.395 0 0 0 1.181-1.614 6.604 6.604 0 0 0 .62-1.905 13.506 13.506 0 0 0 .185-2.002c.004-.31.004-.61.004-.921.008-.364.008-.725.008-1.094V9.536c0-.366 0-.73-.008-1.092 0-.306 0-.614-.004-.92a13.507 13.507 0 0 0-.186-2.003 6.618 6.618 0 0 0-.619-1.903 6.466 6.466 0 0 0-2.799-2.8 6.768 6.768 0 0 0-1.908-.627 13.044 13.044 0 0 0-2-.176c-.305-.005-.617-.011-.922-.013-.36-.002-.724-.002-1.084-.002z" fill="#a6a6a6"/><path d="M8.445 39.125c-.305 0-.602-.004-.904-.01a12.687 12.687 0 0 1-1.87-.164 5.884 5.884 0 0 1-1.656-.548 5.406 5.406 0 0 1-1.397-1.016 5.32 5.32 0 0 1-1.02-1.397 5.722 5.722 0 0 1-.544-1.657 12.413 12.413 0 0 1-.166-1.875c-.007-.21-.015-.913-.015-.913v-23.1s.009-.692.015-.895a12.37 12.37 0 0 1 .165-1.872 5.756 5.756 0 0 1 .544-1.662 5.373 5.373 0 0 1 1.015-1.398 5.565 5.565 0 0 1 1.402-1.023 5.823 5.823 0 0 1 1.653-.544A12.586 12.586 0 0 1 7.543.887l.902-.012H147.65l.913.013a12.385 12.385 0 0 1 1.859.162 5.938 5.938 0 0 1 1.67.548 5.594 5.594 0 0 1 2.416 2.42 5.763 5.763 0 0 1 .535 1.649 12.995 12.995 0 0 1 .174 1.887c.003.283.003.588.003.89.008.375.008.732.008 1.092v20.929c0 .363 0 .718-.008 1.075 0 .325 0 .623-.004.93a12.731 12.731 0 0 1-.171 1.853 5.739 5.739 0 0 1-.54 1.67 5.48 5.48 0 0 1-1.016 1.386 5.413 5.413 0 0 1-1.4 1.022 5.862 5.862 0 0 1-1.667.55 12.542 12.542 0 0 1-1.87.163c-.292.007-.599.011-.897.011l-1.084.002-138.126-.002z"/></g><path d="M24.965 13.305c-1.198-1.996-3.194-3.394-5.59-3.394-3.394 0-5.989 2.595-5.989 5.99 0 6.587 3.594 7.585 11.579 15.172 7.985-7.587 11.579-8.585 11.579-15.173 0-3.394-2.595-5.989-5.99-5.989-2.395 0-4.391 1.398-5.589 3.394z" fill="#ff0707" stroke="null"/><path fill="#fff" d="M63.56 19.772q0 1.77-.454 3.096-.453 1.322-1.32 2.19-.873.872-2.138 1.303-1.265.432-3.014.432h-2.889q-.241 0-.457-.164-.216-.164-.216-.574V13.892q0-.41.216-.575.216-.164.457-.164h3.092q1.77 0 2.992.458t2.051 1.317q.825.86 1.252 2.081.428 1.226.428 2.763m-1.909.074q0-1.106-.272-2.06-.276-.954-.859-1.65-.587-.694-1.481-1.087-.898-.389-2.31-.389h-1.844v10.613h1.866q1.308 0 2.202-.324.898-.328 1.498-1.001.6-.674.902-1.693.298-1.019.298-2.41zm16.132-.03q0 1.653-.393 2.983-.389 1.326-1.162 2.258-.777.933-1.947 1.434-1.17.5-2.729.5-1.541 0-2.664-.457-1.123-.458-1.852-1.334-.734-.872-1.093-2.172-.358-1.295-.358-2.98 0-1.614.388-2.931.393-1.317 1.17-2.241.782-.924 1.952-1.425 1.17-.5 2.729-.5 1.507 0 2.625.453 1.119.453 1.861 1.325.743.868 1.106 2.15.367 1.279.367 2.937m-1.909.125q0-1.157-.207-2.155-.203-.997-.687-1.731-.479-.73-1.278-1.14-.803-.415-1.982-.415-1.183 0-1.982.445-.803.44-1.303 1.179-.501.738-.717 1.723-.216.988-.216 2.072 0 1.205.203 2.215.198 1.01.673 1.745.475.734 1.27 1.14.794.405 1.999.405 1.192 0 2.003-.444.812-.44 1.304-1.196.497-.756.709-1.745.211-.993.211-2.098zm15.082 6.105q0 .207-.065.359-.069.146-.181.241-.112.095-.246.139-.138.038-.276.038h-.579q-.276 0-.48-.056-.207-.06-.392-.211-.182-.151-.367-.415-.186-.263-.406-.678l-4.3-7.754q-.337-.605-.683-1.261-.34-.66-.635-1.283h-.021q.021.76.03 1.55.013.79.013 1.572v8.234q0 .074-.043.138-.043.07-.143.108-.099.035-.263.065-.164.026-.419.026-.25 0-.414-.026-.164-.03-.26-.065-.094-.039-.138-.108-.038-.064-.038-.138v-12.59q0-.42.228-.6.234-.178.51-.178h.863q.307 0 .51.052.207.052.371.173.164.12.315.337.152.215.333.544l3.307 5.988q.307.549.592 1.071.285.523.548 1.028.264.505.523.993.259.492.51.989h.012q-.021-.834-.026-1.736-.008-.902-.008-1.736V13.46q0-.074.043-.138.043-.065.142-.113.1-.047.264-.069.164-.021.427-.021.233 0 .402.021.168.022.263.07.095.047.138.112.04.064.04.138v12.586zm13.843.104q.086.233.09.375.005.143-.081.216-.082.074-.277.095-.194.022-.522.022t-.523-.017q-.194-.018-.293-.052-.104-.039-.151-.1-.043-.064-.087-.16l-1.17-3.32h-5.673l-1.119 3.278q-.03.095-.082.164-.052.069-.15.116-.104.048-.286.07-.185.02-.48.02-.306 0-.5-.025-.199-.03-.276-.104-.078-.073-.074-.216.005-.142.091-.37l4.573-12.674q.043-.116.112-.19.069-.073.198-.116.134-.043.337-.056.207-.018.523-.018.336 0 .56.018.221.013.36.056.133.043.21.12.074.083.113.2L104.8 26.15m-5.872-11.183h-.009l-2.353 6.796h4.745l-2.383-6.796zm15.013-1.037q0 .203-.022.35-.021.147-.069.238-.047.09-.116.133-.07.04-.152.04h-3.838v11.83q0 .082-.043.147-.043.06-.147.1-.104.034-.28.064-.173.026-.437.026-.255 0-.432-.026-.181-.03-.285-.065-.103-.039-.146-.099-.044-.065-.044-.147v-11.83h-3.838q-.082 0-.151-.04-.07-.043-.112-.133-.04-.091-.065-.238-.03-.147-.03-.35 0-.198.03-.35.026-.155.065-.25.043-.095.112-.134.069-.043.15-.043h9.491q.082 0 .152.043.069.04.116.134.048.095.07.25.02.152.02.35zm9.56 12.116q0 .19-.022.333-.022.142-.074.233-.051.095-.12.138-.07.043-.152.043h-6.55q-.241 0-.457-.164-.216-.164-.216-.574V13.892q0-.41.216-.575.216-.164.457-.164h6.473q.086 0 .155.043.07.04.112.134.04.095.065.238.03.142.03.354 0 .19-.03.332-.026.143-.065.233-.043.087-.112.13-.069.043-.155.043h-5.333v4.28h4.577q.082 0 .151.047.07.047.117.133.047.082.069.23.021.15.021.349 0 .19-.021.328-.022.134-.07.22-.047.082-.116.121-.069.04-.15.04h-4.578v4.878h5.41q.082 0 .152.043.069.04.12.13.052.09.074.233.021.143.021.354z" stroke="null"/></svg>