<svg width="182" height="56" xmlns="http://www.w3.org/2000/svg"><g fill="none" fill-rule="evenodd"><rect stroke="#CDCDCD" fill="#252525" width="182" height="56" rx="2"/><g fill-rule="nonzero"><path d="M26.99 28.8V18.33l7.22 3.22-7.22 7.25zM13.2 42.64l8.85-16.67 3.88 3.88-12.73 12.8zm-5.05-31.4l18.22 6.6v11.58L8.16 11.23z" fill="#82BEA0"/><path fill="#FA6441" d="M37.9 17.85H27.4l13.5 6.02z"/></g><path d="M56.1 13.9h1.17v3.9l-.41.1a12.68 12.68 0 01-2.25.27c-.59 0-1.12-.1-1.6-.29a3.4 3.4 0 01-1.23-.84 3.8 3.8 0 01-.8-1.36 5.57 5.57 0 01-.28-1.84c0-.7.1-1.32.31-1.86.22-.54.5-1 .86-1.36.36-.37.78-.65 1.27-.84.48-.2 1-.29 1.55-.29a6.23 6.23 0 011.75.24 3.67 3.67 0 01.78.34l-.37.97a3.14 3.14 0 00-.92-.38c-.39-.1-.78-.15-1.18-.15-.42 0-.8.08-1.16.23-.34.15-.64.37-.88.66-.25.29-.44.64-.57 1.05a4.95 4.95 0 00-.03 2.74c.11.41.29.76.52 1.05.24.3.53.52.88.68.35.16.76.24 1.23.24a5.8 5.8 0 001.37-.16v-3.1zm2.58 1c0-.56.08-1.04.24-1.45.16-.42.37-.76.63-1.03.27-.27.57-.48.91-.61.35-.14.7-.2 1.06-.2.84 0 1.48.26 1.93.78.45.52.67 1.32.67 2.4v.39h-4.28c.05.65.24 1.14.56 1.48.33.33.84.5 1.54.5a4.1 4.1 0 001.6-.3l.15.94a5.08 5.08 0 01-1.87.35c-.54 0-1.01-.09-1.41-.25a2.63 2.63 0 01-1.55-1.7c-.12-.4-.18-.84-.18-1.3zm4.28-.62c0-.5-.12-.92-.38-1.24a1.3 1.3 0 00-1.07-.49 1.47 1.47 0 00-1.18.54 1.8 1.8 0 00-.32.55c-.07.21-.12.42-.15.64h3.1zm3.82-2.52h2.36v.94h-2.36v2.88c0 .3.02.57.07.77.05.2.12.36.21.48.1.12.22.2.36.25a2.37 2.37 0 001.31-.04l.43-.17.22.93a4.14 4.14 0 01-1.55.33c-.42 0-.77-.05-1.05-.16-.27-.1-.5-.27-.66-.49a1.95 1.95 0 01-.36-.8c-.07-.31-.1-.68-.1-1.1v-5.56l1.12-.2v1.94zM74.44 18h-1.11v-6.24h1.11V18zm-.56-7.37a.7.7 0 01-.72-.73.7.7 0 01.72-.73.7.7 0 01.72.73.7.7 0 01-.72.73zm3.53 1.13h2.36v.94h-2.36v2.88c0 .3.02.57.07.77.05.2.12.36.22.48s.21.2.36.25a2.37 2.37 0 001.31-.04l.43-.17.21.93a4.14 4.14 0 01-1.55.33c-.42 0-.77-.05-1.05-.16-.27-.1-.5-.27-.66-.49a1.95 1.95 0 01-.36-.8c-.06-.31-.1-.68-.1-1.1v-5.56l1.12-.2v1.94zm8.99-3.07a4.3 4.3 0 011.34.2l-.2.96a2.72 2.72 0 00-1.06-.2c-.52 0-.88.14-1.1.42-.2.29-.3.67-.3 1.15v.54h2.4v.94h-2.4V18h-1.12v-6.8c0-.8.2-1.42.59-1.86.39-.43 1-.65 1.85-.65zm4.5 2.94a3.47 3.47 0 01.7.06 10.46 10.46 0 01.54.12l-.19.97a3.74 3.74 0 00-2.24-.02V18h-1.12v-5.98a7.59 7.59 0 012.3-.4zm7.83 3.25c0 .5-.07.94-.21 1.34-.15.4-.35.75-.61 1.04-.26.28-.57.5-.93.66-.36.16-.75.24-1.18.24-.42 0-.81-.08-1.17-.24a2.67 2.67 0 01-.93-.66 3.07 3.07 0 01-.6-1.04c-.15-.4-.22-.84-.22-1.34 0-.49.07-.93.21-1.34.15-.4.35-.75.6-1.04a2.93 2.93 0 012.1-.9c.44 0 .83.08 1.19.24.36.15.67.38.93.66.26.3.46.64.6 1.04.15.4.22.85.22 1.34zm-1.16 0c0-.7-.16-1.26-.48-1.67a1.54 1.54 0 00-1.29-.62c-.54 0-.97.2-1.29.62-.31.4-.47.97-.47 1.67s.16 1.26.47 1.67c.32.42.75.62 1.3.62.54 0 .97-.2 1.28-.62.32-.4.48-.97.48-1.67zm2.73-2.94a8.71 8.71 0 012.47-.31c.4 0 .74.05 1.01.16.28.1.5.27.69.47a4.3 4.3 0 01.7-.37c.18-.07.38-.13.6-.18.21-.06.44-.08.69-.08.48 0 .87.07 1.18.2.3.15.54.35.71.6.17.26.29.56.35.91.06.36.09.74.09 1.16V18h-1.12v-3.26c0-.37-.02-.69-.05-.95-.04-.27-.1-.49-.2-.66a.93.93 0 00-.41-.4 2.47 2.47 0 00-1.6.02c-.24.11-.41.2-.5.28a6.1 6.1 0 01.2 1.46V18h-1.12v-3.26c0-.37-.02-.69-.06-.95a1.91 1.91 0 00-.21-.66.93.93 0 00-.41-.4 1.49 1.49 0 00-.65-.12 5.79 5.79 0 00-1.24.12V18h-1.12v-6.06zm14.15-.18h2.37v.94h-2.37v2.88c0 .3.03.57.07.77.05.2.12.36.22.48s.22.2.36.25a2.37 2.37 0 001.31-.04l.43-.17.22.93a4.14 4.14 0 01-1.55.33c-.43 0-.78-.05-1.05-.16-.28-.1-.5-.27-.67-.49a1.95 1.95 0 01-.35-.8c-.07-.31-.1-.68-.1-1.1v-5.56l1.11-.2v1.94zm3.78 6.24V8.88l1.12-.2v3.2a3.78 3.78 0 011.37-.25c.5 0 .9.07 1.23.2.33.15.6.34.79.6.2.25.33.55.41.9.08.35.12.74.12 1.17V18h-1.11v-3.26c0-.39-.03-.72-.08-.99s-.14-.49-.26-.66a1.02 1.02 0 00-.48-.36 2.1 2.1 0 00-.74-.12 7.99 7.99 0 00-1.25.2V18h-1.12zm6.5-3.1c0-.56.09-1.04.25-1.45.16-.42.37-.76.63-1.03.27-.27.57-.48.91-.61.35-.14.7-.2 1.06-.2.84 0 1.48.26 1.93.78.45.52.67 1.32.67 2.4v.39h-4.28c.05.65.24 1.14.56 1.48.33.33.84.5 1.54.5a4.1 4.1 0 001.6-.3l.15.94a5.08 5.08 0 01-1.87.35c-.54 0-1.01-.09-1.41-.25a2.63 2.63 0 01-1.55-1.7c-.12-.4-.18-.84-.18-1.3zm4.29-.62c0-.5-.12-.92-.38-1.24a1.3 1.3 0 00-1.07-.49 1.47 1.47 0 00-1.18.54 1.8 1.8 0 00-.32.55c-.07.21-.12.42-.15.64h3.1zM55.93 39.34c2.43 0 3.65-.83 3.65-2.5 0-.5-.11-.94-.33-1.3-.21-.36-.5-.67-.87-.94-.37-.26-.8-.49-1.26-.68-.48-.2-.98-.38-1.5-.58-.61-.2-1.19-.44-1.73-.7a6.05 6.05 0 01-1.42-.94c-.4-.36-.71-.79-.95-1.28-.23-.5-.34-1.1-.34-1.8 0-1.46.5-2.6 1.48-3.41 1-.82 2.36-1.23 4.1-1.23 1.02 0 1.93.11 2.76.33.82.21 1.42.45 1.8.7l-.74 1.9a8.05 8.05 0 00-3.82-.91c-.44 0-.86.05-1.24.14-.38.1-.72.24-1 .44-.3.19-.52.43-.7.73-.16.3-.24.64-.24 1.04 0 .45.08.83.26 1.13.18.3.42.57.74.8.32.24.7.45 1.12.64.42.2.9.38 1.4.58.72.28 1.38.57 1.98.86.6.29 1.12.63 1.56 1.03.44.4.78.88 1.02 1.43.24.55.36 1.22.36 2 0 1.46-.53 2.58-1.6 3.36-1.06.79-2.56 1.18-4.5 1.18a11.54 11.54 0 01-5.13-1.18l.7-1.92a8.63 8.63 0 004.44 1.08zm8.76-10.46c.51-.13 1.19-.26 2.04-.4.85-.15 1.82-.22 2.93-.22.99 0 1.81.14 2.47.42.65.28 1.18.67 1.57 1.17.4.5.67 1.11.83 1.81.16.7.24 1.48.24 2.33V41h-2.23v-6.53c0-.77-.06-1.42-.16-1.97-.1-.54-.28-.98-.52-1.32a2.04 2.04 0 00-.96-.73c-.4-.15-.9-.23-1.48-.23a11.93 11.93 0 00-2.1.17l-.4.07V41h-2.23V28.88zm18 10.51c.53 0 1-.01 1.4-.03.41-.03.75-.07 1.02-.14V35.5a2.86 2.86 0 00-.78-.2 8.68 8.68 0 00-2.37-.01 3.3 3.3 0 00-1.04.3c-.3.15-.57.36-.78.62-.2.27-.3.61-.3 1.05 0 .8.25 1.35.76 1.66a4 4 0 002.09.47zm-.2-11.18c.9 0 1.66.11 2.27.35.62.23 1.12.56 1.5.98.37.42.64.93.8 1.51.16.59.24 1.23.24 1.93v7.8l-.8.14a23.37 23.37 0 01-2.58.28c-.5.04-1 .06-1.5.06-.7 0-1.35-.07-1.94-.21-.6-.15-1.1-.37-1.54-.69a3.13 3.13 0 01-1-1.23 4.33 4.33 0 01-.36-1.85 3.35 3.35 0 011.56-2.98c.48-.3 1.04-.52 1.68-.67a9.16 9.16 0 013.4-.08 40.87 40.87 0 01.9.18v-.63c0-.36-.05-.73-.13-1.09a2.5 2.5 0 00-.43-.96c-.2-.28-.5-.5-.85-.67a3.34 3.34 0 00-1.4-.25c-.74 0-1.39.05-1.94.15-.55.1-.96.22-1.23.33l-.27-1.85c.29-.13.77-.25 1.44-.37.67-.12 1.4-.18 2.19-.18zm17.17 6.57c0-1.45-.36-2.57-1.08-3.36a3.72 3.72 0 00-2.88-1.17c-.68 0-1.2.02-1.58.07-.37.05-.67.1-.9.17v7.87c.28.22.67.44 1.18.65a4.42 4.42 0 003.32-.04c.46-.23.83-.55 1.12-.96.29-.4.5-.89.62-1.44.13-.55.2-1.15.2-1.79zm2.32 0a8.8 8.8 0 01-.37 2.62c-.25.8-.61 1.49-1.09 2.06a4.96 4.96 0 01-1.76 1.35c-.7.32-1.5.48-2.4.48a5.8 5.8 0 01-3.14-.84v4.99H91V28.9l1.98-.42c.8-.15 1.71-.22 2.75-.22a7 7 0 012.6.45 5.55 5.55 0 013.22 3.35c.3.8.44 1.72.44 2.72zm12.7 4.56c2.43 0 3.65-.83 3.65-2.5 0-.5-.11-.94-.33-1.3-.21-.36-.5-.67-.87-.94-.37-.26-.79-.49-1.26-.68-.47-.2-.97-.38-1.5-.58-.61-.2-1.19-.44-1.73-.7a6.05 6.05 0 01-1.42-.94c-.4-.36-.71-.79-.94-1.28-.24-.5-.35-1.1-.35-1.8 0-1.46.5-2.6 1.49-3.41.99-.82 2.36-1.23 4.1-1.23 1 0 1.92.11 2.75.33.82.21 1.43.45 1.81.7l-.74 1.9a8.05 8.05 0 00-3.82-.91c-.45 0-.86.05-1.25.14-.38.1-.72.24-1 .44-.3.19-.52.43-.69.73-.17.3-.25.64-.25 1.04 0 .45.09.83.26 1.13.18.3.43.57.75.8.32.24.69.45 1.11.64.43.2.9.38 1.4.58.73.28 1.39.57 1.99.86.6.29 1.12.63 1.56 1.03.44.4.78.88 1.02 1.43.24.55.36 1.22.36 2 0 1.46-.54 2.58-1.6 3.36-1.06.79-2.56 1.18-4.5 1.18a11.54 11.54 0 01-5.14-1.18l.7-1.92a8.63 8.63 0 004.44 1.08zm10.85-10.82h4.73v1.87h-4.73v5.76c0 .63.05 1.14.14 1.55.1.4.24.73.43.96.2.23.44.4.72.5a4.74 4.74 0 002.63-.08l.85-.34.44 1.85c-.23.11-.62.25-1.18.42-.56.17-1.2.25-1.92.25-.85 0-1.55-.1-2.1-.32s-1-.54-1.33-.97a3.9 3.9 0 01-.71-1.6c-.14-.63-.2-1.36-.2-2.2V25.05l2.23-.38v3.86zm18.24 6.24c0 1-.15 1.89-.43 2.69-.3.8-.7 1.49-1.22 2.06a5.33 5.33 0 01-1.86 1.33c-.72.32-1.5.47-2.35.47-.85 0-1.63-.15-2.35-.47a5.33 5.33 0 01-1.86-1.33 6.15 6.15 0 01-1.21-2.06 7.9 7.9 0 01-.43-2.69c0-.98.14-1.87.43-2.68.29-.8.69-1.5 1.21-2.07a5.33 5.33 0 011.86-1.33c.72-.32 1.5-.47 2.35-.47.85 0 1.63.15 2.35.47.72.3 1.34.75 1.86 1.33.52.57.93 1.27 1.22 2.07.28.81.43 1.7.43 2.68zm-2.33 0c0-1.4-.32-2.52-.95-3.35a3.08 3.08 0 00-2.58-1.23c-1.09 0-1.95.4-2.58 1.23a5.37 5.37 0 00-.95 3.35c0 1.4.32 2.52.95 3.35.63.82 1.5 1.23 2.58 1.23 1.09 0 1.95-.4 2.58-1.23.63-.83.95-1.94.95-3.35zm10.08-6.5a6.94 6.94 0 011.4.13 20.92 20.92 0 011.1.23l-.39 1.94a7.48 7.48 0 00-4.49-.05V41h-2.23V29.05c.53-.2 1.19-.37 1.97-.54.78-.17 1.66-.25 2.64-.25zm3.96 6.52c0-1.1.16-2.06.48-2.89.32-.82.74-1.5 1.27-2.05a5.16 5.16 0 011.83-1.22 5.7 5.7 0 012.1-.41c1.69 0 2.98.52 3.87 1.57.9 1.05 1.35 2.64 1.35 4.79v.37c0 .15-.01.3-.03.42h-8.54c.1 1.3.47 2.28 1.13 2.95.65.67 1.68 1.01 3.07 1.01a8.19 8.19 0 003.19-.6l.31 1.87c-.27.15-.75.3-1.43.46-.68.16-1.45.24-2.31.24a7.35 7.35 0 01-2.82-.5 5.26 5.26 0 01-3.1-3.4 8.68 8.68 0 01-.37-2.6zm8.57-1.22c.01-1-.24-1.84-.76-2.48a2.6 2.6 0 00-2.15-.98 2.94 2.94 0 00-2.35 1.08c-.27.32-.48.7-.63 1.1-.16.42-.26.85-.3 1.28h6.19z" fill="#FFF"/></g></svg>