<?xml version="1.0" encoding="UTF-8"?>
<!DOCTYPE xmeml>
<xmeml version="5">
    <sequence>
        <name>大太平洋 - S01E01 - 激情 (Resolve)</name>
        <duration>1002</duration>
        <rate>
            <timebase>25</timebase>
            <ntsc>FALSE</ntsc>
        </rate>
        <in>-1</in>
        <out>-1</out>
        <timecode>
            <string>00:00:00:00</string>
            <frame>0</frame>
            <displayformat>NDF</displayformat>
            <rate>
                <timebase>25</timebase>
                <ntsc>FALSE</ntsc>
            </rate>
        </timecode>
        <media>
            <video>
                <track>
                    <clipitem id="[orion origin] Spy x Family [10] [H265 AAC] [1080p+] [GB]-00.00.00.000-00.00.39.909.mp4 0">
                        <name>[orion origin] Spy x Family [10] [H265 AAC] [1080p+] [GB]-00.00.00.000-00.00.39.909.mp4</name>
                        <duration>278</duration>
                        <rate>
                            <timebase>25</timebase>
                            <ntsc>FALSE</ntsc>
                        </rate>
                        <start>0</start>
                        <end>275</end>
                        <enabled>TRUE</enabled>
                        <in>0</in>
                        <out>275</out>
                        <file id="[orion origin] Spy x Family [10] [H265 AAC] [1080p+] [GB]-00.00.00.000-00.00.39.909.mp4 2">
                            <duration>266</duration>
                            <rate>
                                <timebase>24</timebase>
                                <ntsc>TRUE</ntsc>
                            </rate>
                            <name>[orion origin] Spy x Family [10] [H265 AAC] [1080p+] [GB]-00.00.00.000-00.00.39.909.mp4</name>
                            <pathurl>file://localhost/C:/Users/eryu/Videos/V1-0001_[orion%20origin]%20Spy%20x%20Family%20[10]%20[H265%20AAC]%20[1080p+]%20[GB]-00.00.00.000-00.00.39.909.mp4</pathurl>
                            <timecode>
                                <string>00:00:00:00</string>
                                <displayformat>NDF</displayformat>
                                <rate>
                                    <timebase>24</timebase>
                                    <ntsc>TRUE</ntsc>
                                </rate>
                            </timecode>
                            <media>
                                <video>
                                    <duration>266</duration>
                                    <samplecharacteristics>
                                        <width>3840</width>
                                        <height>2160</height>
                                    </samplecharacteristics>
                                </video>
                            </media>
                        </file>
                        <compositemode>normal</compositemode>
                        <filter>
                            <enabled>TRUE</enabled>
                            <start>0</start>
                            <end>278</end>
                            <effect>
                                <name>Opacity</name>
                                <effectid>opacity</effectid>
                                <effecttype>motion</effecttype>
                                <mediatype>video</mediatype>
                                <effectcategory>motion</effectcategory>
                                <parameter>
                                    <name>opacity</name>
                                    <parameterid>opacity</parameterid>
                                    <value>100</value>
                                    <valuemin>0</valuemin>
                                    <valuemax>100</valuemax>
                                </parameter>
                            </effect>
                        </filter>
                        <link>
                            <linkclipref>[orion origin] Spy x Family [10] [H265 AAC] [1080p+] [GB]-00.00.00.000-00.00.39.909.mp4 0</linkclipref>
                        </link>
                        <link>
                            <linkclipref>[orion origin] Spy x Family [10] [H265 AAC] [1080p+] [GB]-00.00.00.000-00.00.39.909.mp4 36</linkclipref>
                        </link>
                        <link>
                            <linkclipref>[orion origin] Spy x Family [10] [H265 AAC] [1080p+] [GB]-00.00.00.000-00.00.39.909.mp4 49</linkclipref>
                        </link>
                        <comments/>
                    </clipitem>
                    <clipitem id="[orion origin] Spy x Family [10] [H265 AAC] [1080p+] [GB]-00.00.00.000-00.00.39.909.mp4 3">
                        <name>[orion origin] Spy x Family [10] [H265 AAC] [1080p+] [GB]-00.00.00.000-00.00.39.909.mp4</name>
                        <duration>105</duration>
                        <rate>
                            <timebase>25</timebase>
                            <ntsc>FALSE</ntsc>
                        </rate>
                        <start>275</start>
                        <end>353</end>
                        <enabled>TRUE</enabled>
                        <in>24</in>
                        <out>102</out>
                        <file id="[orion origin] Spy x Family [10] [H265 AAC] [1080p+] [GB]-00.00.00.000-00.00.39.909.mp4 5">
                            <duration>100</duration>
                            <rate>
                                <timebase>24</timebase>
                                <ntsc>TRUE</ntsc>
                            </rate>
                            <name>[orion origin] Spy x Family [10] [H265 AAC] [1080p+] [GB]-00.00.00.000-00.00.39.909.mp4</name>
                            <pathurl>file://localhost/C:/Users/eryu/Videos/V1-0002_[orion%20origin]%20Spy%20x%20Family%20[10]%20[H265%20AAC]%20[1080p+]%20[GB]-00.00.00.000-00.00.39.909.mp4</pathurl>
                            <timecode>
                                <string>00:00:10:00</string>
                                <displayformat>NDF</displayformat>
                                <rate>
                                    <timebase>24</timebase>
                                    <ntsc>TRUE</ntsc>
                                </rate>
                            </timecode>
                            <media>
                                <video>
                                    <duration>100</duration>
                                    <samplecharacteristics>
                                        <width>3840</width>
                                        <height>2160</height>
                                    </samplecharacteristics>
                                </video>
                            </media>
                        </file>
                        <compositemode>normal</compositemode>
                        <filter>
                            <enabled>TRUE</enabled>
                            <start>0</start>
                            <end>105</end>
                            <effect>
                                <name>Opacity</name>
                                <effectid>opacity</effectid>
                                <effecttype>motion</effecttype>
                                <mediatype>video</mediatype>
                                <effectcategory>motion</effectcategory>
                                <parameter>
                                    <name>opacity</name>
                                    <parameterid>opacity</parameterid>
                                    <value>100</value>
                                    <valuemin>0</valuemin>
                                    <valuemax>100</valuemax>
                                </parameter>
                            </effect>
                        </filter>
                        <link>
                            <linkclipref>[orion origin] Spy x Family [10] [H265 AAC] [1080p+] [GB]-00.00.00.000-00.00.39.909.mp4 3</linkclipref>
                        </link>
                        <link>
                            <linkclipref>[orion origin] Spy x Family [10] [H265 AAC] [1080p+] [GB]-00.00.00.000-00.00.39.909.mp4 38</linkclipref>
                        </link>
                        <link>
                            <linkclipref>[orion origin] Spy x Family [10] [H265 AAC] [1080p+] [GB]-00.00.00.000-00.00.39.909.mp4 50</linkclipref>
                        </link>
                        <comments/>
                    </clipitem>
                    <clipitem id="[orion origin] Spy x Family [10] [H265 AAC] [1080p+] [GB]-00.00.00.000-00.00.39.909.mp4 6">
                        <name>[orion origin] Spy x Family [10] [H265 AAC] [1080p+] [GB]-00.00.00.000-00.00.39.909.mp4</name>
                        <duration>99</duration>
                        <rate>
                            <timebase>25</timebase>
                            <ntsc>FALSE</ntsc>
                        </rate>
                        <start>353</start>
                        <end>422</end>
                        <enabled>TRUE</enabled>
                        <in>28</in>
                        <out>97</out>
                        <file id="[orion origin] Spy x Family [10] [H265 AAC] [1080p+] [GB]-00.00.00.000-00.00.39.909.mp4 8">
                            <duration>95</duration>
                            <rate>
                                <timebase>24</timebase>
                                <ntsc>TRUE</ntsc>
                            </rate>
                            <name>[orion origin] Spy x Family [10] [H265 AAC] [1080p+] [GB]-00.00.00.000-00.00.39.909.mp4</name>
                            <pathurl>file://localhost/C:/Users/eryu/Videos/V1-0003_[orion%20origin]%20Spy%20x%20Family%20[10]%20[H265%20AAC]%20[1080p+]%20[GB]-00.00.00.000-00.00.39.909.mp4</pathurl>
                            <timecode>
                                <string>00:00:13:00</string>
                                <displayformat>NDF</displayformat>
                                <rate>
                                    <timebase>24</timebase>
                                    <ntsc>TRUE</ntsc>
                                </rate>
                            </timecode>
                            <media>
                                <video>
                                    <duration>95</duration>
                                    <samplecharacteristics>
                                        <width>3840</width>
                                        <height>2160</height>
                                    </samplecharacteristics>
                                </video>
                            </media>
                        </file>
                        <compositemode>normal</compositemode>
                        <filter>
                            <enabled>TRUE</enabled>
                            <start>0</start>
                            <end>99</end>
                            <effect>
                                <name>Opacity</name>
                                <effectid>opacity</effectid>
                                <effecttype>motion</effecttype>
                                <mediatype>video</mediatype>
                                <effectcategory>motion</effectcategory>
                                <parameter>
                                    <name>opacity</name>
                                    <parameterid>opacity</parameterid>
                                    <value>100</value>
                                    <valuemin>0</valuemin>
                                    <valuemax>100</valuemax>
                                </parameter>
                            </effect>
                        </filter>
                        <link>
                            <linkclipref>[orion origin] Spy x Family [10] [H265 AAC] [1080p+] [GB]-00.00.00.000-00.00.39.909.mp4 6</linkclipref>
                        </link>
                        <link>
                            <linkclipref>[orion origin] Spy x Family [10] [H265 AAC] [1080p+] [GB]-00.00.00.000-00.00.39.909.mp4 39</linkclipref>
                        </link>
                        <link>
                            <linkclipref>[orion origin] Spy x Family [10] [H265 AAC] [1080p+] [GB]-00.00.00.000-00.00.39.909.mp4 51</linkclipref>
                        </link>
                        <comments/>
                    </clipitem>
                    <clipitem id="[orion origin] Spy x Family [10] [H265 AAC] [1080p+] [GB]-00.00.00.000-00.00.39.909.mp4 9">
                        <name>[orion origin] Spy x Family [10] [H265 AAC] [1080p+] [GB]-00.00.00.000-00.00.39.909.mp4</name>
                        <duration>110</duration>
                        <rate>
                            <timebase>25</timebase>
                            <ntsc>FALSE</ntsc>
                        </rate>
                        <start>422</start>
                        <end>509</end>
                        <enabled>TRUE</enabled>
                        <in>21</in>
                        <out>108</out>
                        <file id="[orion origin] Spy x Family [10] [H265 AAC] [1080p+] [GB]-00.00.00.000-00.00.39.909.mp4 11">
                            <duration>106</duration>
                            <rate>
                                <timebase>24</timebase>
                                <ntsc>TRUE</ntsc>
                            </rate>
                            <name>[orion origin] Spy x Family [10] [H265 AAC] [1080p+] [GB]-00.00.00.000-00.00.39.909.mp4</name>
                            <pathurl>file://localhost/C:/Users/eryu/Videos/V1-0004_[orion%20origin]%20Spy%20x%20Family%20[10]%20[H265%20AAC]%20[1080p+]%20[GB]-00.00.00.000-00.00.39.909.mp4</pathurl>
                            <timecode>
                                <string>00:00:16:00</string>
                                <displayformat>NDF</displayformat>
                                <rate>
                                    <timebase>24</timebase>
                                    <ntsc>TRUE</ntsc>
                                </rate>
                            </timecode>
                            <media>
                                <video>
                                    <duration>106</duration>
                                    <samplecharacteristics>
                                        <width>3840</width>
                                        <height>2160</height>
                                    </samplecharacteristics>
                                </video>
                            </media>
                        </file>
                        <compositemode>normal</compositemode>
                        <filter>
                            <enabled>TRUE</enabled>
                            <start>0</start>
                            <end>110</end>
                            <effect>
                                <name>Opacity</name>
                                <effectid>opacity</effectid>
                                <effecttype>motion</effecttype>
                                <mediatype>video</mediatype>
                                <effectcategory>motion</effectcategory>
                                <parameter>
                                    <name>opacity</name>
                                    <parameterid>opacity</parameterid>
                                    <value>100</value>
                                    <valuemin>0</valuemin>
                                    <valuemax>100</valuemax>
                                </parameter>
                            </effect>
                        </filter>
                        <link>
                            <linkclipref>[orion origin] Spy x Family [10] [H265 AAC] [1080p+] [GB]-00.00.00.000-00.00.39.909.mp4 9</linkclipref>
                        </link>
                        <link>
                            <linkclipref>[orion origin] Spy x Family [10] [H265 AAC] [1080p+] [GB]-00.00.00.000-00.00.39.909.mp4 40</linkclipref>
                        </link>
                        <link>
                            <linkclipref>[orion origin] Spy x Family [10] [H265 AAC] [1080p+] [GB]-00.00.00.000-00.00.39.909.mp4 52</linkclipref>
                        </link>
                        <comments/>
                    </clipitem>
                    <clipitem id="[orion origin] Spy x Family [10] [H265 AAC] [1080p+] [GB]-00.00.00.000-00.00.39.909.mp4 12">
                        <name>[orion origin] Spy x Family [10] [H265 AAC] [1080p+] [GB]-00.00.00.000-00.00.39.909.mp4</name>
                        <duration>86</duration>
                        <rate>
                            <timebase>25</timebase>
                            <ntsc>FALSE</ntsc>
                        </rate>
                        <start>509</start>
                        <end>584</end>
                        <enabled>TRUE</enabled>
                        <in>9</in>
                        <out>84</out>
                        <file id="[orion origin] Spy x Family [10] [H265 AAC] [1080p+] [GB]-00.00.00.000-00.00.39.909.mp4 14">
                            <duration>82</duration>
                            <rate>
                                <timebase>24</timebase>
                                <ntsc>TRUE</ntsc>
                            </rate>
                            <name>[orion origin] Spy x Family [10] [H265 AAC] [1080p+] [GB]-00.00.00.000-00.00.39.909.mp4</name>
                            <pathurl>file://localhost/C:/Users/eryu/Videos/V1-0005_[orion%20origin]%20Spy%20x%20Family%20[10]%20[H265%20AAC]%20[1080p+]%20[GB]-00.00.00.000-00.00.39.909.mp4</pathurl>
                            <timecode>
                                <string>00:00:20:00</string>
                                <displayformat>NDF</displayformat>
                                <rate>
                                    <timebase>24</timebase>
                                    <ntsc>TRUE</ntsc>
                                </rate>
                            </timecode>
                            <media>
                                <video>
                                    <duration>82</duration>
                                    <samplecharacteristics>
                                        <width>3840</width>
                                        <height>2160</height>
                                    </samplecharacteristics>
                                </video>
                            </media>
                        </file>
                        <compositemode>normal</compositemode>
                        <filter>
                            <enabled>TRUE</enabled>
                            <start>0</start>
                            <end>86</end>
                            <effect>
                                <name>Opacity</name>
                                <effectid>opacity</effectid>
                                <effecttype>motion</effecttype>
                                <mediatype>video</mediatype>
                                <effectcategory>motion</effectcategory>
                                <parameter>
                                    <name>opacity</name>
                                    <parameterid>opacity</parameterid>
                                    <value>100</value>
                                    <valuemin>0</valuemin>
                                    <valuemax>100</valuemax>
                                </parameter>
                            </effect>
                        </filter>
                        <link>
                            <linkclipref>[orion origin] Spy x Family [10] [H265 AAC] [1080p+] [GB]-00.00.00.000-00.00.39.909.mp4 12</linkclipref>
                        </link>
                        <link>
                            <linkclipref>[orion origin] Spy x Family [10] [H265 AAC] [1080p+] [GB]-00.00.00.000-00.00.39.909.mp4 41</linkclipref>
                        </link>
                        <link>
                            <linkclipref>[orion origin] Spy x Family [10] [H265 AAC] [1080p+] [GB]-00.00.00.000-00.00.39.909.mp4 53</linkclipref>
                        </link>
                        <comments/>
                    </clipitem>
                    <clipitem id="[orion origin] Spy x Family [10] [H265 AAC] [1080p+] [GB]-00.00.00.000-00.00.39.909.mp4 15">
                        <name>[orion origin] Spy x Family [10] [H265 AAC] [1080p+] [GB]-00.00.00.000-00.00.39.909.mp4</name>
                        <duration>158</duration>
                        <rate>
                            <timebase>25</timebase>
                            <ntsc>FALSE</ntsc>
                        </rate>
                        <start>584</start>
                        <end>731</end>
                        <enabled>TRUE</enabled>
                        <in>9</in>
                        <out>156</out>
                        <file id="[orion origin] Spy x Family [10] [H265 AAC] [1080p+] [GB]-00.00.00.000-00.00.39.909.mp4 17">
                            <duration>151</duration>
                            <rate>
                                <timebase>24</timebase>
                                <ntsc>TRUE</ntsc>
                            </rate>
                            <name>[orion origin] Spy x Family [10] [H265 AAC] [1080p+] [GB]-00.00.00.000-00.00.39.909.mp4</name>
                            <pathurl>file://localhost/C:/Users/eryu/Videos/V1-0006_[orion%20origin]%20Spy%20x%20Family%20[10]%20[H265%20AAC]%20[1080p+]%20[GB]-00.00.00.000-00.00.39.909.mp4</pathurl>
                            <timecode>
                                <string>00:00:23:00</string>
                                <displayformat>NDF</displayformat>
                                <rate>
                                    <timebase>24</timebase>
                                    <ntsc>TRUE</ntsc>
                                </rate>
                            </timecode>
                            <media>
                                <video>
                                    <duration>151</duration>
                                    <samplecharacteristics>
                                        <width>3840</width>
                                        <height>2160</height>
                                    </samplecharacteristics>
                                </video>
                            </media>
                        </file>
                        <compositemode>normal</compositemode>
                        <filter>
                            <enabled>TRUE</enabled>
                            <start>0</start>
                            <end>158</end>
                            <effect>
                                <name>Opacity</name>
                                <effectid>opacity</effectid>
                                <effecttype>motion</effecttype>
                                <mediatype>video</mediatype>
                                <effectcategory>motion</effectcategory>
                                <parameter>
                                    <name>opacity</name>
                                    <parameterid>opacity</parameterid>
                                    <value>100</value>
                                    <valuemin>0</valuemin>
                                    <valuemax>100</valuemax>
                                </parameter>
                            </effect>
                        </filter>
                        <link>
                            <linkclipref>[orion origin] Spy x Family [10] [H265 AAC] [1080p+] [GB]-00.00.00.000-00.00.39.909.mp4 15</linkclipref>
                        </link>
                        <link>
                            <linkclipref>[orion origin] Spy x Family [10] [H265 AAC] [1080p+] [GB]-00.00.00.000-00.00.39.909.mp4 42</linkclipref>
                        </link>
                        <link>
                            <linkclipref>[orion origin] Spy x Family [10] [H265 AAC] [1080p+] [GB]-00.00.00.000-00.00.39.909.mp4 54</linkclipref>
                        </link>
                        <comments/>
                    </clipitem>
                    <clipitem id="[orion origin] Spy x Family [10] [H265 AAC] [1080p+] [GB]-00.00.00.000-00.00.39.909.mp4 18">
                        <name>[orion origin] Spy x Family [10] [H265 AAC] [1080p+] [GB]-00.00.00.000-00.00.39.909.mp4</name>
                        <duration>115</duration>
                        <rate>
                            <timebase>25</timebase>
                            <ntsc>FALSE</ntsc>
                        </rate>
                        <start>731</start>
                        <end>838</end>
                        <enabled>TRUE</enabled>
                        <in>6</in>
                        <out>113</out>
                        <file id="[orion origin] Spy x Family [10] [H265 AAC] [1080p+] [GB]-00.00.00.000-00.00.39.909.mp4 20">
                            <duration>110</duration>
                            <rate>
                                <timebase>24</timebase>
                                <ntsc>TRUE</ntsc>
                            </rate>
                            <name>[orion origin] Spy x Family [10] [H265 AAC] [1080p+] [GB]-00.00.00.000-00.00.39.909.mp4</name>
                            <pathurl>file://localhost/C:/Users/eryu/Videos/V1-0007_[orion%20origin]%20Spy%20x%20Family%20[10]%20[H265%20AAC]%20[1080p+]%20[GB]-00.00.00.000-00.00.39.909.mp4</pathurl>
                            <timecode>
                                <string>00:00:29:00</string>
                                <displayformat>NDF</displayformat>
                                <rate>
                                    <timebase>24</timebase>
                                    <ntsc>TRUE</ntsc>
                                </rate>
                            </timecode>
                            <media>
                                <video>
                                    <duration>110</duration>
                                    <samplecharacteristics>
                                        <width>3840</width>
                                        <height>2160</height>
                                    </samplecharacteristics>
                                </video>
                            </media>
                        </file>
                        <compositemode>normal</compositemode>
                        <filter>
                            <enabled>TRUE</enabled>
                            <start>0</start>
                            <end>115</end>
                            <effect>
                                <name>Opacity</name>
                                <effectid>opacity</effectid>
                                <effecttype>motion</effecttype>
                                <mediatype>video</mediatype>
                                <effectcategory>motion</effectcategory>
                                <parameter>
                                    <name>opacity</name>
                                    <parameterid>opacity</parameterid>
                                    <value>100</value>
                                    <valuemin>0</valuemin>
                                    <valuemax>100</valuemax>
                                </parameter>
                            </effect>
                        </filter>
                        <link>
                            <linkclipref>[orion origin] Spy x Family [10] [H265 AAC] [1080p+] [GB]-00.00.00.000-00.00.39.909.mp4 18</linkclipref>
                        </link>
                        <link>
                            <linkclipref>[orion origin] Spy x Family [10] [H265 AAC] [1080p+] [GB]-00.00.00.000-00.00.39.909.mp4 43</linkclipref>
                        </link>
                        <link>
                            <linkclipref>[orion origin] Spy x Family [10] [H265 AAC] [1080p+] [GB]-00.00.00.000-00.00.39.909.mp4 55</linkclipref>
                        </link>
                        <comments/>
                    </clipitem>
                    <clipitem id="[orion origin] Spy x Family [10] [H265 AAC] [1080p+] [GB]-00.00.00.000-00.00.39.909.mp4 21">
                        <name>[orion origin] Spy x Family [10] [H265 AAC] [1080p+] [GB]-00.00.00.000-00.00.39.909.mp4</name>
                        <duration>64</duration>
                        <rate>
                            <timebase>25</timebase>
                            <ntsc>FALSE</ntsc>
                        </rate>
                        <start>838</start>
                        <end>888</end>
                        <enabled>TRUE</enabled>
                        <in>12</in>
                        <out>62</out>
                        <file id="[orion origin] Spy x Family [10] [H265 AAC] [1080p+] [GB]-00.00.00.000-00.00.39.909.mp4 23">
                            <duration>61</duration>
                            <rate>
                                <timebase>24</timebase>
                                <ntsc>TRUE</ntsc>
                            </rate>
                            <name>[orion origin] Spy x Family [10] [H265 AAC] [1080p+] [GB]-00.00.00.000-00.00.39.909.mp4</name>
                            <pathurl>file://localhost/C:/Users/eryu/Videos/V1-0008_[orion%20origin]%20Spy%20x%20Family%20[10]%20[H265%20AAC]%20[1080p+]%20[GB]-00.00.00.000-00.00.39.909.mp4</pathurl>
                            <timecode>
                                <string>00:00:33:00</string>
                                <displayformat>NDF</displayformat>
                                <rate>
                                    <timebase>24</timebase>
                                    <ntsc>TRUE</ntsc>
                                </rate>
                            </timecode>
                            <media>
                                <video>
                                    <duration>61</duration>
                                    <samplecharacteristics>
                                        <width>3840</width>
                                        <height>2160</height>
                                    </samplecharacteristics>
                                </video>
                            </media>
                        </file>
                        <compositemode>normal</compositemode>
                        <filter>
                            <enabled>TRUE</enabled>
                            <start>0</start>
                            <end>64</end>
                            <effect>
                                <name>Opacity</name>
                                <effectid>opacity</effectid>
                                <effecttype>motion</effecttype>
                                <mediatype>video</mediatype>
                                <effectcategory>motion</effectcategory>
                                <parameter>
                                    <name>opacity</name>
                                    <parameterid>opacity</parameterid>
                                    <value>100</value>
                                    <valuemin>0</valuemin>
                                    <valuemax>100</valuemax>
                                </parameter>
                            </effect>
                        </filter>
                        <link>
                            <linkclipref>[orion origin] Spy x Family [10] [H265 AAC] [1080p+] [GB]-00.00.00.000-00.00.39.909.mp4 21</linkclipref>
                        </link>
                        <link>
                            <linkclipref>[orion origin] Spy x Family [10] [H265 AAC] [1080p+] [GB]-00.00.00.000-00.00.39.909.mp4 44</linkclipref>
                        </link>
                        <link>
                            <linkclipref>[orion origin] Spy x Family [10] [H265 AAC] [1080p+] [GB]-00.00.00.000-00.00.39.909.mp4 56</linkclipref>
                        </link>
                        <comments/>
                    </clipitem>
                    <clipitem id="[orion origin] Spy x Family [10] [H265 AAC] [1080p+] [GB]-00.00.00.000-00.00.39.909.mp4 24">
                        <name>[orion origin] Spy x Family [10] [H265 AAC] [1080p+] [GB]-00.00.00.000-00.00.39.909.mp4</name>
                        <duration>61</duration>
                        <rate>
                            <timebase>25</timebase>
                            <ntsc>FALSE</ntsc>
                        </rate>
                        <start>888</start>
                        <end>935</end>
                        <enabled>TRUE</enabled>
                        <in>12</in>
                        <out>59</out>
                        <file id="[orion origin] Spy x Family [10] [H265 AAC] [1080p+] [GB]-00.00.00.000-00.00.39.909.mp4 26">
                            <duration>59</duration>
                            <rate>
                                <timebase>24</timebase>
                                <ntsc>TRUE</ntsc>
                            </rate>
                            <name>[orion origin] Spy x Family [10] [H265 AAC] [1080p+] [GB]-00.00.00.000-00.00.39.909.mp4</name>
                            <pathurl>file://localhost/C:/Users/eryu/Videos/V1-0009_[orion%20origin]%20Spy%20x%20Family%20[10]%20[H265%20AAC]%20[1080p+]%20[GB]-00.00.00.000-00.00.39.909.mp4</pathurl>
                            <timecode>
                                <string>00:00:35:00</string>
                                <displayformat>NDF</displayformat>
                                <rate>
                                    <timebase>24</timebase>
                                    <ntsc>TRUE</ntsc>
                                </rate>
                            </timecode>
                            <media>
                                <video>
                                    <duration>59</duration>
                                    <samplecharacteristics>
                                        <width>3840</width>
                                        <height>2160</height>
                                    </samplecharacteristics>
                                </video>
                            </media>
                        </file>
                        <compositemode>normal</compositemode>
                        <filter>
                            <enabled>TRUE</enabled>
                            <start>0</start>
                            <end>61</end>
                            <effect>
                                <name>Opacity</name>
                                <effectid>opacity</effectid>
                                <effecttype>motion</effecttype>
                                <mediatype>video</mediatype>
                                <effectcategory>motion</effectcategory>
                                <parameter>
                                    <name>opacity</name>
                                    <parameterid>opacity</parameterid>
                                    <value>100</value>
                                    <valuemin>0</valuemin>
                                    <valuemax>100</valuemax>
                                </parameter>
                            </effect>
                        </filter>
                        <link>
                            <linkclipref>[orion origin] Spy x Family [10] [H265 AAC] [1080p+] [GB]-00.00.00.000-00.00.39.909.mp4 24</linkclipref>
                        </link>
                        <link>
                            <linkclipref>[orion origin] Spy x Family [10] [H265 AAC] [1080p+] [GB]-00.00.00.000-00.00.39.909.mp4 45</linkclipref>
                        </link>
                        <link>
                            <linkclipref>[orion origin] Spy x Family [10] [H265 AAC] [1080p+] [GB]-00.00.00.000-00.00.39.909.mp4 57</linkclipref>
                        </link>
                        <comments/>
                    </clipitem>
                    <clipitem id="[orion origin] Spy x Family [10] [H265 AAC] [1080p+] [GB]-00.00.00.000-00.00.39.909.mp4 27">
                        <name>[orion origin] Spy x Family [10] [H265 AAC] [1080p+] [GB]-00.00.00.000-00.00.39.909.mp4</name>
                        <duration>36</duration>
                        <rate>
                            <timebase>25</timebase>
                            <ntsc>FALSE</ntsc>
                        </rate>
                        <start>935</start>
                        <end>960</end>
                        <enabled>TRUE</enabled>
                        <in>9</in>
                        <out>34</out>
                        <file id="[orion origin] Spy x Family [10] [H265 AAC] [1080p+] [GB]-00.00.00.000-00.00.39.909.mp4 29">
                            <duration>34</duration>
                            <rate>
                                <timebase>24</timebase>
                                <ntsc>TRUE</ntsc>
                            </rate>
                            <name>[orion origin] Spy x Family [10] [H265 AAC] [1080p+] [GB]-00.00.00.000-00.00.39.909.mp4</name>
                            <pathurl>file://localhost/C:/Users/eryu/Videos/V1-0010_[orion%20origin]%20Spy%20x%20Family%20[10]%20[H265%20AAC]%20[1080p+]%20[GB]-00.00.00.000-00.00.39.909.mp4</pathurl>
                            <timecode>
                                <string>00:00:37:00</string>
                                <displayformat>NDF</displayformat>
                                <rate>
                                    <timebase>24</timebase>
                                    <ntsc>TRUE</ntsc>
                                </rate>
                            </timecode>
                            <media>
                                <video>
                                    <duration>34</duration>
                                    <samplecharacteristics>
                                        <width>3840</width>
                                        <height>2160</height>
                                    </samplecharacteristics>
                                </video>
                            </media>
                        </file>
                        <compositemode>normal</compositemode>
                        <filter>
                            <enabled>TRUE</enabled>
                            <start>0</start>
                            <end>36</end>
                            <effect>
                                <name>Opacity</name>
                                <effectid>opacity</effectid>
                                <effecttype>motion</effecttype>
                                <mediatype>video</mediatype>
                                <effectcategory>motion</effectcategory>
                                <parameter>
                                    <name>opacity</name>
                                    <parameterid>opacity</parameterid>
                                    <value>100</value>
                                    <valuemin>0</valuemin>
                                    <valuemax>100</valuemax>
                                </parameter>
                            </effect>
                        </filter>
                        <link>
                            <linkclipref>[orion origin] Spy x Family [10] [H265 AAC] [1080p+] [GB]-00.00.00.000-00.00.39.909.mp4 27</linkclipref>
                        </link>
                        <link>
                            <linkclipref>[orion origin] Spy x Family [10] [H265 AAC] [1080p+] [GB]-00.00.00.000-00.00.39.909.mp4 46</linkclipref>
                        </link>
                        <link>
                            <linkclipref>[orion origin] Spy x Family [10] [H265 AAC] [1080p+] [GB]-00.00.00.000-00.00.39.909.mp4 58</linkclipref>
                        </link>
                        <comments/>
                    </clipitem>
                    <clipitem id="[orion origin] Spy x Family [10] [H265 AAC] [1080p+] [GB]-00.00.00.000-00.00.39.909.mp4 30">
                        <name>[orion origin] Spy x Family [10] [H265 AAC] [1080p+] [GB]-00.00.00.000-00.00.39.909.mp4</name>
                        <duration>36</duration>
                        <rate>
                            <timebase>25</timebase>
                            <ntsc>FALSE</ntsc>
                        </rate>
                        <start>960</start>
                        <end>985</end>
                        <enabled>TRUE</enabled>
                        <in>9</in>
                        <out>34</out>
                        <file id="[orion origin] Spy x Family [10] [H265 AAC] [1080p+] [GB]-00.00.00.000-00.00.39.909.mp4 32">
                            <duration>34</duration>
                            <rate>
                                <timebase>24</timebase>
                                <ntsc>TRUE</ntsc>
                            </rate>
                            <name>[orion origin] Spy x Family [10] [H265 AAC] [1080p+] [GB]-00.00.00.000-00.00.39.909.mp4</name>
                            <pathurl>file://localhost/C:/Users/eryu/Videos/V1-0011_[orion%20origin]%20Spy%20x%20Family%20[10]%20[H265%20AAC]%20[1080p+]%20[GB]-00.00.00.000-00.00.39.909.mp4</pathurl>
                            <timecode>
                                <string>00:00:38:00</string>
                                <displayformat>NDF</displayformat>
                                <rate>
                                    <timebase>24</timebase>
                                    <ntsc>TRUE</ntsc>
                                </rate>
                            </timecode>
                            <media>
                                <video>
                                    <duration>34</duration>
                                    <samplecharacteristics>
                                        <width>3840</width>
                                        <height>2160</height>
                                    </samplecharacteristics>
                                </video>
                            </media>
                        </file>
                        <compositemode>normal</compositemode>
                        <filter>
                            <enabled>TRUE</enabled>
                            <start>0</start>
                            <end>36</end>
                            <effect>
                                <name>Opacity</name>
                                <effectid>opacity</effectid>
                                <effecttype>motion</effecttype>
                                <mediatype>video</mediatype>
                                <effectcategory>motion</effectcategory>
                                <parameter>
                                    <name>opacity</name>
                                    <parameterid>opacity</parameterid>
                                    <value>100</value>
                                    <valuemin>0</valuemin>
                                    <valuemax>100</valuemax>
                                </parameter>
                            </effect>
                        </filter>
                        <link>
                            <linkclipref>[orion origin] Spy x Family [10] [H265 AAC] [1080p+] [GB]-00.00.00.000-00.00.39.909.mp4 30</linkclipref>
                        </link>
                        <link>
                            <linkclipref>[orion origin] Spy x Family [10] [H265 AAC] [1080p+] [GB]-00.00.00.000-00.00.39.909.mp4 47</linkclipref>
                        </link>
                        <link>
                            <linkclipref>[orion origin] Spy x Family [10] [H265 AAC] [1080p+] [GB]-00.00.00.000-00.00.39.909.mp4 59</linkclipref>
                        </link>
                        <comments/>
                    </clipitem>
                    <clipitem id="[orion origin] Spy x Family [10] [H265 AAC] [1080p+] [GB]-00.00.00.000-00.00.39.909.mp4 33">
                        <name>[orion origin] Spy x Family [10] [H265 AAC] [1080p+] [GB]-00.00.00.000-00.00.39.909.mp4</name>
                        <duration>25</duration>
                        <rate>
                            <timebase>25</timebase>
                            <ntsc>FALSE</ntsc>
                        </rate>
                        <start>985</start>
                        <end>1002</end>
                        <enabled>TRUE</enabled>
                        <in>9</in>
                        <out>26</out>
                        <file id="[orion origin] Spy x Family [10] [H265 AAC] [1080p+] [GB]-00.00.00.000-00.00.39.909.mp4 35">
                            <duration>24</duration>
                            <rate>
                                <timebase>24</timebase>
                                <ntsc>TRUE</ntsc>
                            </rate>
                            <name>[orion origin] Spy x Family [10] [H265 AAC] [1080p+] [GB]-00.00.00.000-00.00.39.909.mp4</name>
                            <pathurl>file://localhost/C:/Users/eryu/Videos/V1-0012_[orion%20origin]%20Spy%20x%20Family%20[10]%20[H265%20AAC]%20[1080p+]%20[GB]-00.00.00.000-00.00.39.909.mp4</pathurl>
                            <timecode>
                                <string>00:00:39:00</string>
                                <displayformat>NDF</displayformat>
                                <rate>
                                    <timebase>24</timebase>
                                    <ntsc>TRUE</ntsc>
                                </rate>
                            </timecode>
                            <media>
                                <video>
                                    <duration>24</duration>
                                    <samplecharacteristics>
                                        <width>3840</width>
                                        <height>2160</height>
                                    </samplecharacteristics>
                                </video>
                            </media>
                        </file>
                        <compositemode>normal</compositemode>
                        <filter>
                            <enabled>TRUE</enabled>
                            <start>0</start>
                            <end>25</end>
                            <effect>
                                <name>Opacity</name>
                                <effectid>opacity</effectid>
                                <effecttype>motion</effecttype>
                                <mediatype>video</mediatype>
                                <effectcategory>motion</effectcategory>
                                <parameter>
                                    <name>opacity</name>
                                    <parameterid>opacity</parameterid>
                                    <value>100</value>
                                    <valuemin>0</valuemin>
                                    <valuemax>100</valuemax>
                                </parameter>
                            </effect>
                        </filter>
                        <link>
                            <linkclipref>[orion origin] Spy x Family [10] [H265 AAC] [1080p+] [GB]-00.00.00.000-00.00.39.909.mp4 33</linkclipref>
                        </link>
                        <link>
                            <linkclipref>[orion origin] Spy x Family [10] [H265 AAC] [1080p+] [GB]-00.00.00.000-00.00.39.909.mp4 48</linkclipref>
                        </link>
                        <link>
                            <linkclipref>[orion origin] Spy x Family [10] [H265 AAC] [1080p+] [GB]-00.00.00.000-00.00.39.909.mp4 60</linkclipref>
                        </link>
                        <comments/>
                    </clipitem>
                    <enabled>TRUE</enabled>
                    <locked>FALSE</locked>
                </track>
                <track>
                    <enabled>TRUE</enabled>
                    <locked>FALSE</locked>
                </track>
                <track>
                    <enabled>TRUE</enabled>
                    <locked>FALSE</locked>
                </track>
                <track>
                    <enabled>TRUE</enabled>
                    <locked>FALSE</locked>
                </track>
                <track>
                    <enabled>TRUE</enabled>
                    <locked>FALSE</locked>
                </track>
                <format>
                    <samplecharacteristics>
                        <width>3840</width>
                        <height>2160</height>
                        <anamorphic>FALSE</anamorphic>
                        <pixelaspectratio>square</pixelaspectratio>
                        <fielddominance>none</fielddominance>
                        <rate>
                            <timebase>25</timebase>
                            <ntsc>FALSE</ntsc>
                        </rate>
                        <colordepth>24</colordepth>
                        <codec>
                            <name>Apple ProRes 422</name>
                            <appspecificdata>
                                <appname>Final Cut Pro</appname>
                                <appmanufacturer>Apple Inc.</appmanufacturer>
                                <appversion>7.0</appversion>
                                <data>
                                    <qtcodec>
                                        <codecname>Apple ProRes 422</codecname>
                                        <codectypename>Apple ProRes 422</codectypename>
                                        <codectypecode>apcn</codectypecode>
                                        <codecvendorcode>appl</codecvendorcode>
                                        <spatialquality>1024</spatialquality>
                                        <temporalquality>0</temporalquality>
                                        <keyframerate>0</keyframerate>
                                        <datarate>0</datarate>
                                    </qtcodec>
                                </data>
                            </appspecificdata>
                        </codec>
                    </samplecharacteristics>
                </format>
            </video>
            <audio>
                <track>
                    <clipitem id="[orion origin] Spy x Family [10] [H265 AAC] [1080p+] [GB]-00.00.00.000-00.00.39.909.mp4 36">
                        <name>[orion origin] Spy x Family [10] [H265 AAC] [1080p+] [GB]-00.00.00.000-00.00.39.909.mp4</name>
                        <duration>1002</duration>
                        <rate>
                            <timebase>25</timebase>
                            <ntsc>FALSE</ntsc>
                        </rate>
                        <start>0</start>
                        <end>275</end>
                        <enabled>TRUE</enabled>
                        <in>0</in>
                        <out>275</out>
                        <file id="[orion origin] Spy x Family [10] [H265 AAC] [1080p+] [GB]-00.00.00.000-00.00.39.909.mp4 37">
                            <duration>961</duration>
                            <rate>
                                <timebase>24</timebase>
                                <ntsc>TRUE</ntsc>
                            </rate>
                            <name>[orion origin] Spy x Family [10] [H265 AAC] [1080p+] [GB]-00.00.00.000-00.00.39.909.mp4</name>
                            <pathurl>file://localhost/D:/FFOUT/[orion%20origin]%20Spy%20x%20Family%20[10]%20[H265%20AAC]%20[1080p+]%20[GB]-00.00.00.000-00.00.39.909.mp4</pathurl>
                            <media>
                                <audio>
                                    <channelcount>2</channelcount>
                                </audio>
                            </media>
                        </file>
                        <sourcetrack>
                            <mediatype>audio</mediatype>
                            <trackindex>1</trackindex>
                        </sourcetrack>
                        <link>
                            <linkclipref>[orion origin] Spy x Family [10] [H265 AAC] [1080p+] [GB]-00.00.00.000-00.00.39.909.mp4 0</linkclipref>
                        </link>
                        <link>
                            <linkclipref>[orion origin] Spy x Family [10] [H265 AAC] [1080p+] [GB]-00.00.00.000-00.00.39.909.mp4 36</linkclipref>
                        </link>
                        <link>
                            <linkclipref>[orion origin] Spy x Family [10] [H265 AAC] [1080p+] [GB]-00.00.00.000-00.00.39.909.mp4 49</linkclipref>
                        </link>
                        <comments/>
                    </clipitem>
                    <clipitem id="[orion origin] Spy x Family [10] [H265 AAC] [1080p+] [GB]-00.00.00.000-00.00.39.909.mp4 38">
                        <name>[orion origin] Spy x Family [10] [H265 AAC] [1080p+] [GB]-00.00.00.000-00.00.39.909.mp4</name>
                        <duration>1002</duration>
                        <rate>
                            <timebase>25</timebase>
                            <ntsc>FALSE</ntsc>
                        </rate>
                        <start>275</start>
                        <end>353</end>
                        <enabled>TRUE</enabled>
                        <in>275</in>
                        <out>353</out>
                        <file id="[orion origin] Spy x Family [10] [H265 AAC] [1080p+] [GB]-00.00.00.000-00.00.39.909.mp4 37"/>
                        <sourcetrack>
                            <mediatype>audio</mediatype>
                            <trackindex>1</trackindex>
                        </sourcetrack>
                        <link>
                            <linkclipref>[orion origin] Spy x Family [10] [H265 AAC] [1080p+] [GB]-00.00.00.000-00.00.39.909.mp4 3</linkclipref>
                        </link>
                        <link>
                            <linkclipref>[orion origin] Spy x Family [10] [H265 AAC] [1080p+] [GB]-00.00.00.000-00.00.39.909.mp4 38</linkclipref>
                        </link>
                        <link>
                            <linkclipref>[orion origin] Spy x Family [10] [H265 AAC] [1080p+] [GB]-00.00.00.000-00.00.39.909.mp4 50</linkclipref>
                        </link>
                        <comments/>
                    </clipitem>
                    <clipitem id="[orion origin] Spy x Family [10] [H265 AAC] [1080p+] [GB]-00.00.00.000-00.00.39.909.mp4 39">
                        <name>[orion origin] Spy x Family [10] [H265 AAC] [1080p+] [GB]-00.00.00.000-00.00.39.909.mp4</name>
                        <duration>1002</duration>
                        <rate>
                            <timebase>25</timebase>
                            <ntsc>FALSE</ntsc>
                        </rate>
                        <start>353</start>
                        <end>422</end>
                        <enabled>TRUE</enabled>
                        <in>353</in>
                        <out>422</out>
                        <file id="[orion origin] Spy x Family [10] [H265 AAC] [1080p+] [GB]-00.00.00.000-00.00.39.909.mp4 37"/>
                        <sourcetrack>
                            <mediatype>audio</mediatype>
                            <trackindex>1</trackindex>
                        </sourcetrack>
                        <link>
                            <linkclipref>[orion origin] Spy x Family [10] [H265 AAC] [1080p+] [GB]-00.00.00.000-00.00.39.909.mp4 6</linkclipref>
                        </link>
                        <link>
                            <linkclipref>[orion origin] Spy x Family [10] [H265 AAC] [1080p+] [GB]-00.00.00.000-00.00.39.909.mp4 39</linkclipref>
                        </link>
                        <link>
                            <linkclipref>[orion origin] Spy x Family [10] [H265 AAC] [1080p+] [GB]-00.00.00.000-00.00.39.909.mp4 51</linkclipref>
                        </link>
                        <comments/>
                    </clipitem>
                    <clipitem id="[orion origin] Spy x Family [10] [H265 AAC] [1080p+] [GB]-00.00.00.000-00.00.39.909.mp4 40">
                        <name>[orion origin] Spy x Family [10] [H265 AAC] [1080p+] [GB]-00.00.00.000-00.00.39.909.mp4</name>
                        <duration>1002</duration>
                        <rate>
                            <timebase>25</timebase>
                            <ntsc>FALSE</ntsc>
                        </rate>
                        <start>422</start>
                        <end>509</end>
                        <enabled>TRUE</enabled>
                        <in>422</in>
                        <out>509</out>
                        <file id="[orion origin] Spy x Family [10] [H265 AAC] [1080p+] [GB]-00.00.00.000-00.00.39.909.mp4 37"/>
                        <sourcetrack>
                            <mediatype>audio</mediatype>
                            <trackindex>1</trackindex>
                        </sourcetrack>
                        <link>
                            <linkclipref>[orion origin] Spy x Family [10] [H265 AAC] [1080p+] [GB]-00.00.00.000-00.00.39.909.mp4 9</linkclipref>
                        </link>
                        <link>
                            <linkclipref>[orion origin] Spy x Family [10] [H265 AAC] [1080p+] [GB]-00.00.00.000-00.00.39.909.mp4 40</linkclipref>
                        </link>
                        <link>
                            <linkclipref>[orion origin] Spy x Family [10] [H265 AAC] [1080p+] [GB]-00.00.00.000-00.00.39.909.mp4 52</linkclipref>
                        </link>
                        <comments/>
                    </clipitem>
                    <clipitem id="[orion origin] Spy x Family [10] [H265 AAC] [1080p+] [GB]-00.00.00.000-00.00.39.909.mp4 41">
                        <name>[orion origin] Spy x Family [10] [H265 AAC] [1080p+] [GB]-00.00.00.000-00.00.39.909.mp4</name>
                        <duration>1002</duration>
                        <rate>
                            <timebase>25</timebase>
                            <ntsc>FALSE</ntsc>
                        </rate>
                        <start>509</start>
                        <end>584</end>
                        <enabled>TRUE</enabled>
                        <in>509</in>
                        <out>584</out>
                        <file id="[orion origin] Spy x Family [10] [H265 AAC] [1080p+] [GB]-00.00.00.000-00.00.39.909.mp4 37"/>
                        <sourcetrack>
                            <mediatype>audio</mediatype>
                            <trackindex>1</trackindex>
                        </sourcetrack>
                        <link>
                            <linkclipref>[orion origin] Spy x Family [10] [H265 AAC] [1080p+] [GB]-00.00.00.000-00.00.39.909.mp4 12</linkclipref>
                        </link>
                        <link>
                            <linkclipref>[orion origin] Spy x Family [10] [H265 AAC] [1080p+] [GB]-00.00.00.000-00.00.39.909.mp4 41</linkclipref>
                        </link>
                        <link>
                            <linkclipref>[orion origin] Spy x Family [10] [H265 AAC] [1080p+] [GB]-00.00.00.000-00.00.39.909.mp4 53</linkclipref>
                        </link>
                        <comments/>
                    </clipitem>
                    <clipitem id="[orion origin] Spy x Family [10] [H265 AAC] [1080p+] [GB]-00.00.00.000-00.00.39.909.mp4 42">
                        <name>[orion origin] Spy x Family [10] [H265 AAC] [1080p+] [GB]-00.00.00.000-00.00.39.909.mp4</name>
                        <duration>1002</duration>
                        <rate>
                            <timebase>25</timebase>
                            <ntsc>FALSE</ntsc>
                        </rate>
                        <start>584</start>
                        <end>731</end>
                        <enabled>TRUE</enabled>
                        <in>584</in>
                        <out>731</out>
                        <file id="[orion origin] Spy x Family [10] [H265 AAC] [1080p+] [GB]-00.00.00.000-00.00.39.909.mp4 37"/>
                        <sourcetrack>
                            <mediatype>audio</mediatype>
                            <trackindex>1</trackindex>
                        </sourcetrack>
                        <link>
                            <linkclipref>[orion origin] Spy x Family [10] [H265 AAC] [1080p+] [GB]-00.00.00.000-00.00.39.909.mp4 15</linkclipref>
                        </link>
                        <link>
                            <linkclipref>[orion origin] Spy x Family [10] [H265 AAC] [1080p+] [GB]-00.00.00.000-00.00.39.909.mp4 42</linkclipref>
                        </link>
                        <link>
                            <linkclipref>[orion origin] Spy x Family [10] [H265 AAC] [1080p+] [GB]-00.00.00.000-00.00.39.909.mp4 54</linkclipref>
                        </link>
                        <comments/>
                    </clipitem>
                    <clipitem id="[orion origin] Spy x Family [10] [H265 AAC] [1080p+] [GB]-00.00.00.000-00.00.39.909.mp4 43">
                        <name>[orion origin] Spy x Family [10] [H265 AAC] [1080p+] [GB]-00.00.00.000-00.00.39.909.mp4</name>
                        <duration>1002</duration>
                        <rate>
                            <timebase>25</timebase>
                            <ntsc>FALSE</ntsc>
                        </rate>
                        <start>731</start>
                        <end>838</end>
                        <enabled>TRUE</enabled>
                        <in>731</in>
                        <out>838</out>
                        <file id="[orion origin] Spy x Family [10] [H265 AAC] [1080p+] [GB]-00.00.00.000-00.00.39.909.mp4 37"/>
                        <sourcetrack>
                            <mediatype>audio</mediatype>
                            <trackindex>1</trackindex>
                        </sourcetrack>
                        <link>
                            <linkclipref>[orion origin] Spy x Family [10] [H265 AAC] [1080p+] [GB]-00.00.00.000-00.00.39.909.mp4 18</linkclipref>
                        </link>
                        <link>
                            <linkclipref>[orion origin] Spy x Family [10] [H265 AAC] [1080p+] [GB]-00.00.00.000-00.00.39.909.mp4 43</linkclipref>
                        </link>
                        <link>
                            <linkclipref>[orion origin] Spy x Family [10] [H265 AAC] [1080p+] [GB]-00.00.00.000-00.00.39.909.mp4 55</linkclipref>
                        </link>
                        <comments/>
                    </clipitem>
                    <clipitem id="[orion origin] Spy x Family [10] [H265 AAC] [1080p+] [GB]-00.00.00.000-00.00.39.909.mp4 44">
                        <name>[orion origin] Spy x Family [10] [H265 AAC] [1080p+] [GB]-00.00.00.000-00.00.39.909.mp4</name>
                        <duration>1002</duration>
                        <rate>
                            <timebase>25</timebase>
                            <ntsc>FALSE</ntsc>
                        </rate>
                        <start>838</start>
                        <end>888</end>
                        <enabled>TRUE</enabled>
                        <in>838</in>
                        <out>888</out>
                        <file id="[orion origin] Spy x Family [10] [H265 AAC] [1080p+] [GB]-00.00.00.000-00.00.39.909.mp4 37"/>
                        <sourcetrack>
                            <mediatype>audio</mediatype>
                            <trackindex>1</trackindex>
                        </sourcetrack>
                        <link>
                            <linkclipref>[orion origin] Spy x Family [10] [H265 AAC] [1080p+] [GB]-00.00.00.000-00.00.39.909.mp4 21</linkclipref>
                        </link>
                        <link>
                            <linkclipref>[orion origin] Spy x Family [10] [H265 AAC] [1080p+] [GB]-00.00.00.000-00.00.39.909.mp4 44</linkclipref>
                        </link>
                        <link>
                            <linkclipref>[orion origin] Spy x Family [10] [H265 AAC] [1080p+] [GB]-00.00.00.000-00.00.39.909.mp4 56</linkclipref>
                        </link>
                        <comments/>
                    </clipitem>
                    <clipitem id="[orion origin] Spy x Family [10] [H265 AAC] [1080p+] [GB]-00.00.00.000-00.00.39.909.mp4 45">
                        <name>[orion origin] Spy x Family [10] [H265 AAC] [1080p+] [GB]-00.00.00.000-00.00.39.909.mp4</name>
                        <duration>1002</duration>
                        <rate>
                            <timebase>25</timebase>
                            <ntsc>FALSE</ntsc>
                        </rate>
                        <start>888</start>
                        <end>935</end>
                        <enabled>TRUE</enabled>
                        <in>888</in>
                        <out>935</out>
                        <file id="[orion origin] Spy x Family [10] [H265 AAC] [1080p+] [GB]-00.00.00.000-00.00.39.909.mp4 37"/>
                        <sourcetrack>
                            <mediatype>audio</mediatype>
                            <trackindex>1</trackindex>
                        </sourcetrack>
                        <link>
                            <linkclipref>[orion origin] Spy x Family [10] [H265 AAC] [1080p+] [GB]-00.00.00.000-00.00.39.909.mp4 24</linkclipref>
                        </link>
                        <link>
                            <linkclipref>[orion origin] Spy x Family [10] [H265 AAC] [1080p+] [GB]-00.00.00.000-00.00.39.909.mp4 45</linkclipref>
                        </link>
                        <link>
                            <linkclipref>[orion origin] Spy x Family [10] [H265 AAC] [1080p+] [GB]-00.00.00.000-00.00.39.909.mp4 57</linkclipref>
                        </link>
                        <comments/>
                    </clipitem>
                    <clipitem id="[orion origin] Spy x Family [10] [H265 AAC] [1080p+] [GB]-00.00.00.000-00.00.39.909.mp4 46">
                        <name>[orion origin] Spy x Family [10] [H265 AAC] [1080p+] [GB]-00.00.00.000-00.00.39.909.mp4</name>
                        <duration>1002</duration>
                        <rate>
                            <timebase>25</timebase>
                            <ntsc>FALSE</ntsc>
                        </rate>
                        <start>935</start>
                        <end>960</end>
                        <enabled>TRUE</enabled>
                        <in>935</in>
                        <out>960</out>
                        <file id="[orion origin] Spy x Family [10] [H265 AAC] [1080p+] [GB]-00.00.00.000-00.00.39.909.mp4 37"/>
                        <sourcetrack>
                            <mediatype>audio</mediatype>
                            <trackindex>1</trackindex>
                        </sourcetrack>
                        <link>
                            <linkclipref>[orion origin] Spy x Family [10] [H265 AAC] [1080p+] [GB]-00.00.00.000-00.00.39.909.mp4 27</linkclipref>
                        </link>
                        <link>
                            <linkclipref>[orion origin] Spy x Family [10] [H265 AAC] [1080p+] [GB]-00.00.00.000-00.00.39.909.mp4 46</linkclipref>
                        </link>
                        <link>
                            <linkclipref>[orion origin] Spy x Family [10] [H265 AAC] [1080p+] [GB]-00.00.00.000-00.00.39.909.mp4 58</linkclipref>
                        </link>
                        <comments/>
                    </clipitem>
                    <clipitem id="[orion origin] Spy x Family [10] [H265 AAC] [1080p+] [GB]-00.00.00.000-00.00.39.909.mp4 47">
                        <name>[orion origin] Spy x Family [10] [H265 AAC] [1080p+] [GB]-00.00.00.000-00.00.39.909.mp4</name>
                        <duration>1002</duration>
                        <rate>
                            <timebase>25</timebase>
                            <ntsc>FALSE</ntsc>
                        </rate>
                        <start>960</start>
                        <end>985</end>
                        <enabled>TRUE</enabled>
                        <in>960</in>
                        <out>985</out>
                        <file id="[orion origin] Spy x Family [10] [H265 AAC] [1080p+] [GB]-00.00.00.000-00.00.39.909.mp4 37"/>
                        <sourcetrack>
                            <mediatype>audio</mediatype>
                            <trackindex>1</trackindex>
                        </sourcetrack>
                        <link>
                            <linkclipref>[orion origin] Spy x Family [10] [H265 AAC] [1080p+] [GB]-00.00.00.000-00.00.39.909.mp4 30</linkclipref>
                        </link>
                        <link>
                            <linkclipref>[orion origin] Spy x Family [10] [H265 AAC] [1080p+] [GB]-00.00.00.000-00.00.39.909.mp4 47</linkclipref>
                        </link>
                        <link>
                            <linkclipref>[orion origin] Spy x Family [10] [H265 AAC] [1080p+] [GB]-00.00.00.000-00.00.39.909.mp4 59</linkclipref>
                        </link>
                        <comments/>
                    </clipitem>
                    <clipitem id="[orion origin] Spy x Family [10] [H265 AAC] [1080p+] [GB]-00.00.00.000-00.00.39.909.mp4 48">
                        <name>[orion origin] Spy x Family [10] [H265 AAC] [1080p+] [GB]-00.00.00.000-00.00.39.909.mp4</name>
                        <duration>1002</duration>
                        <rate>
                            <timebase>25</timebase>
                            <ntsc>FALSE</ntsc>
                        </rate>
                        <start>985</start>
                        <end>1002</end>
                        <enabled>TRUE</enabled>
                        <in>985</in>
                        <out>1002</out>
                        <file id="[orion origin] Spy x Family [10] [H265 AAC] [1080p+] [GB]-00.00.00.000-00.00.39.909.mp4 37"/>
                        <sourcetrack>
                            <mediatype>audio</mediatype>
                            <trackindex>1</trackindex>
                        </sourcetrack>
                        <link>
                            <linkclipref>[orion origin] Spy x Family [10] [H265 AAC] [1080p+] [GB]-00.00.00.000-00.00.39.909.mp4 33</linkclipref>
                        </link>
                        <link>
                            <linkclipref>[orion origin] Spy x Family [10] [H265 AAC] [1080p+] [GB]-00.00.00.000-00.00.39.909.mp4 48</linkclipref>
                        </link>
                        <link>
                            <linkclipref>[orion origin] Spy x Family [10] [H265 AAC] [1080p+] [GB]-00.00.00.000-00.00.39.909.mp4 60</linkclipref>
                        </link>
                        <comments/>
                    </clipitem>
                    <enabled>TRUE</enabled>
                    <locked>FALSE</locked>
                </track>
                <track>
                    <clipitem id="[orion origin] Spy x Family [10] [H265 AAC] [1080p+] [GB]-00.00.00.000-00.00.39.909.mp4 49">
                        <name>[orion origin] Spy x Family [10] [H265 AAC] [1080p+] [GB]-00.00.00.000-00.00.39.909.mp4</name>
                        <duration>1002</duration>
                        <rate>
                            <timebase>25</timebase>
                            <ntsc>FALSE</ntsc>
                        </rate>
                        <start>0</start>
                        <end>275</end>
                        <enabled>TRUE</enabled>
                        <in>0</in>
                        <out>275</out>
                        <file id="[orion origin] Spy x Family [10] [H265 AAC] [1080p+] [GB]-00.00.00.000-00.00.39.909.mp4 37"/>
                        <sourcetrack>
                            <mediatype>audio</mediatype>
                            <trackindex>1</trackindex>
                        </sourcetrack>
                        <link>
                            <linkclipref>[orion origin] Spy x Family [10] [H265 AAC] [1080p+] [GB]-00.00.00.000-00.00.39.909.mp4 0</linkclipref>
                        </link>
                        <link>
                            <linkclipref>[orion origin] Spy x Family [10] [H265 AAC] [1080p+] [GB]-00.00.00.000-00.00.39.909.mp4 36</linkclipref>
                        </link>
                        <link>
                            <linkclipref>[orion origin] Spy x Family [10] [H265 AAC] [1080p+] [GB]-00.00.00.000-00.00.39.909.mp4 49</linkclipref>
                        </link>
                        <comments/>
                    </clipitem>
                    <clipitem id="[orion origin] Spy x Family [10] [H265 AAC] [1080p+] [GB]-00.00.00.000-00.00.39.909.mp4 50">
                        <name>[orion origin] Spy x Family [10] [H265 AAC] [1080p+] [GB]-00.00.00.000-00.00.39.909.mp4</name>
                        <duration>1002</duration>
                        <rate>
                            <timebase>25</timebase>
                            <ntsc>FALSE</ntsc>
                        </rate>
                        <start>275</start>
                        <end>353</end>
                        <enabled>TRUE</enabled>
                        <in>275</in>
                        <out>353</out>
                        <file id="[orion origin] Spy x Family [10] [H265 AAC] [1080p+] [GB]-00.00.00.000-00.00.39.909.mp4 37"/>
                        <sourcetrack>
                            <mediatype>audio</mediatype>
                            <trackindex>1</trackindex>
                        </sourcetrack>
                        <link>
                            <linkclipref>[orion origin] Spy x Family [10] [H265 AAC] [1080p+] [GB]-00.00.00.000-00.00.39.909.mp4 3</linkclipref>
                        </link>
                        <link>
                            <linkclipref>[orion origin] Spy x Family [10] [H265 AAC] [1080p+] [GB]-00.00.00.000-00.00.39.909.mp4 38</linkclipref>
                        </link>
                        <link>
                            <linkclipref>[orion origin] Spy x Family [10] [H265 AAC] [1080p+] [GB]-00.00.00.000-00.00.39.909.mp4 50</linkclipref>
                        </link>
                        <comments/>
                    </clipitem>
                    <clipitem id="[orion origin] Spy x Family [10] [H265 AAC] [1080p+] [GB]-00.00.00.000-00.00.39.909.mp4 51">
                        <name>[orion origin] Spy x Family [10] [H265 AAC] [1080p+] [GB]-00.00.00.000-00.00.39.909.mp4</name>
                        <duration>1002</duration>
                        <rate>
                            <timebase>25</timebase>
                            <ntsc>FALSE</ntsc>
                        </rate>
                        <start>353</start>
                        <end>422</end>
                        <enabled>TRUE</enabled>
                        <in>353</in>
                        <out>422</out>
                        <file id="[orion origin] Spy x Family [10] [H265 AAC] [1080p+] [GB]-00.00.00.000-00.00.39.909.mp4 37"/>
                        <sourcetrack>
                            <mediatype>audio</mediatype>
                            <trackindex>1</trackindex>
                        </sourcetrack>
                        <link>
                            <linkclipref>[orion origin] Spy x Family [10] [H265 AAC] [1080p+] [GB]-00.00.00.000-00.00.39.909.mp4 6</linkclipref>
                        </link>
                        <link>
                            <linkclipref>[orion origin] Spy x Family [10] [H265 AAC] [1080p+] [GB]-00.00.00.000-00.00.39.909.mp4 39</linkclipref>
                        </link>
                        <link>
                            <linkclipref>[orion origin] Spy x Family [10] [H265 AAC] [1080p+] [GB]-00.00.00.000-00.00.39.909.mp4 51</linkclipref>
                        </link>
                        <comments/>
                    </clipitem>
                    <clipitem id="[orion origin] Spy x Family [10] [H265 AAC] [1080p+] [GB]-00.00.00.000-00.00.39.909.mp4 52">
                        <name>[orion origin] Spy x Family [10] [H265 AAC] [1080p+] [GB]-00.00.00.000-00.00.39.909.mp4</name>
                        <duration>1002</duration>
                        <rate>
                            <timebase>25</timebase>
                            <ntsc>FALSE</ntsc>
                        </rate>
                        <start>422</start>
                        <end>509</end>
                        <enabled>TRUE</enabled>
                        <in>422</in>
                        <out>509</out>
                        <file id="[orion origin] Spy x Family [10] [H265 AAC] [1080p+] [GB]-00.00.00.000-00.00.39.909.mp4 37"/>
                        <sourcetrack>
                            <mediatype>audio</mediatype>
                            <trackindex>1</trackindex>
                        </sourcetrack>
                        <link>
                            <linkclipref>[orion origin] Spy x Family [10] [H265 AAC] [1080p+] [GB]-00.00.00.000-00.00.39.909.mp4 9</linkclipref>
                        </link>
                        <link>
                            <linkclipref>[orion origin] Spy x Family [10] [H265 AAC] [1080p+] [GB]-00.00.00.000-00.00.39.909.mp4 40</linkclipref>
                        </link>
                        <link>
                            <linkclipref>[orion origin] Spy x Family [10] [H265 AAC] [1080p+] [GB]-00.00.00.000-00.00.39.909.mp4 52</linkclipref>
                        </link>
                        <comments/>
                    </clipitem>
                    <clipitem id="[orion origin] Spy x Family [10] [H265 AAC] [1080p+] [GB]-00.00.00.000-00.00.39.909.mp4 53">
                        <name>[orion origin] Spy x Family [10] [H265 AAC] [1080p+] [GB]-00.00.00.000-00.00.39.909.mp4</name>
                        <duration>1002</duration>
                        <rate>
                            <timebase>25</timebase>
                            <ntsc>FALSE</ntsc>
                        </rate>
                        <start>509</start>
                        <end>584</end>
                        <enabled>TRUE</enabled>
                        <in>509</in>
                        <out>584</out>
                        <file id="[orion origin] Spy x Family [10] [H265 AAC] [1080p+] [GB]-00.00.00.000-00.00.39.909.mp4 37"/>
                        <sourcetrack>
                            <mediatype>audio</mediatype>
                            <trackindex>1</trackindex>
                        </sourcetrack>
                        <link>
                            <linkclipref>[orion origin] Spy x Family [10] [H265 AAC] [1080p+] [GB]-00.00.00.000-00.00.39.909.mp4 12</linkclipref>
                        </link>
                        <link>
                            <linkclipref>[orion origin] Spy x Family [10] [H265 AAC] [1080p+] [GB]-00.00.00.000-00.00.39.909.mp4 41</linkclipref>
                        </link>
                        <link>
                            <linkclipref>[orion origin] Spy x Family [10] [H265 AAC] [1080p+] [GB]-00.00.00.000-00.00.39.909.mp4 53</linkclipref>
                        </link>
                        <comments/>
                    </clipitem>
                    <clipitem id="[orion origin] Spy x Family [10] [H265 AAC] [1080p+] [GB]-00.00.00.000-00.00.39.909.mp4 54">
                        <name>[orion origin] Spy x Family [10] [H265 AAC] [1080p+] [GB]-00.00.00.000-00.00.39.909.mp4</name>
                        <duration>1002</duration>
                        <rate>
                            <timebase>25</timebase>
                            <ntsc>FALSE</ntsc>
                        </rate>
                        <start>584</start>
                        <end>731</end>
                        <enabled>TRUE</enabled>
                        <in>584</in>
                        <out>731</out>
                        <file id="[orion origin] Spy x Family [10] [H265 AAC] [1080p+] [GB]-00.00.00.000-00.00.39.909.mp4 37"/>
                        <sourcetrack>
                            <mediatype>audio</mediatype>
                            <trackindex>1</trackindex>
                        </sourcetrack>
                        <link>
                            <linkclipref>[orion origin] Spy x Family [10] [H265 AAC] [1080p+] [GB]-00.00.00.000-00.00.39.909.mp4 15</linkclipref>
                        </link>
                        <link>
                            <linkclipref>[orion origin] Spy x Family [10] [H265 AAC] [1080p+] [GB]-00.00.00.000-00.00.39.909.mp4 42</linkclipref>
                        </link>
                        <link>
                            <linkclipref>[orion origin] Spy x Family [10] [H265 AAC] [1080p+] [GB]-00.00.00.000-00.00.39.909.mp4 54</linkclipref>
                        </link>
                        <comments/>
                    </clipitem>
                    <clipitem id="[orion origin] Spy x Family [10] [H265 AAC] [1080p+] [GB]-00.00.00.000-00.00.39.909.mp4 55">
                        <name>[orion origin] Spy x Family [10] [H265 AAC] [1080p+] [GB]-00.00.00.000-00.00.39.909.mp4</name>
                        <duration>1002</duration>
                        <rate>
                            <timebase>25</timebase>
                            <ntsc>FALSE</ntsc>
                        </rate>
                        <start>731</start>
                        <end>838</end>
                        <enabled>TRUE</enabled>
                        <in>731</in>
                        <out>838</out>
                        <file id="[orion origin] Spy x Family [10] [H265 AAC] [1080p+] [GB]-00.00.00.000-00.00.39.909.mp4 37"/>
                        <sourcetrack>
                            <mediatype>audio</mediatype>
                            <trackindex>1</trackindex>
                        </sourcetrack>
                        <link>
                            <linkclipref>[orion origin] Spy x Family [10] [H265 AAC] [1080p+] [GB]-00.00.00.000-00.00.39.909.mp4 18</linkclipref>
                        </link>
                        <link>
                            <linkclipref>[orion origin] Spy x Family [10] [H265 AAC] [1080p+] [GB]-00.00.00.000-00.00.39.909.mp4 43</linkclipref>
                        </link>
                        <link>
                            <linkclipref>[orion origin] Spy x Family [10] [H265 AAC] [1080p+] [GB]-00.00.00.000-00.00.39.909.mp4 55</linkclipref>
                        </link>
                        <comments/>
                    </clipitem>
                    <clipitem id="[orion origin] Spy x Family [10] [H265 AAC] [1080p+] [GB]-00.00.00.000-00.00.39.909.mp4 56">
                        <name>[orion origin] Spy x Family [10] [H265 AAC] [1080p+] [GB]-00.00.00.000-00.00.39.909.mp4</name>
                        <duration>1002</duration>
                        <rate>
                            <timebase>25</timebase>
                            <ntsc>FALSE</ntsc>
                        </rate>
                        <start>838</start>
                        <end>888</end>
                        <enabled>TRUE</enabled>
                        <in>838</in>
                        <out>888</out>
                        <file id="[orion origin] Spy x Family [10] [H265 AAC] [1080p+] [GB]-00.00.00.000-00.00.39.909.mp4 37"/>
                        <sourcetrack>
                            <mediatype>audio</mediatype>
                            <trackindex>1</trackindex>
                        </sourcetrack>
                        <link>
                            <linkclipref>[orion origin] Spy x Family [10] [H265 AAC] [1080p+] [GB]-00.00.00.000-00.00.39.909.mp4 21</linkclipref>
                        </link>
                        <link>
                            <linkclipref>[orion origin] Spy x Family [10] [H265 AAC] [1080p+] [GB]-00.00.00.000-00.00.39.909.mp4 44</linkclipref>
                        </link>
                        <link>
                            <linkclipref>[orion origin] Spy x Family [10] [H265 AAC] [1080p+] [GB]-00.00.00.000-00.00.39.909.mp4 56</linkclipref>
                        </link>
                        <comments/>
                    </clipitem>
                    <clipitem id="[orion origin] Spy x Family [10] [H265 AAC] [1080p+] [GB]-00.00.00.000-00.00.39.909.mp4 57">
                        <name>[orion origin] Spy x Family [10] [H265 AAC] [1080p+] [GB]-00.00.00.000-00.00.39.909.mp4</name>
                        <duration>1002</duration>
                        <rate>
                            <timebase>25</timebase>
                            <ntsc>FALSE</ntsc>
                        </rate>
                        <start>888</start>
                        <end>935</end>
                        <enabled>TRUE</enabled>
                        <in>888</in>
                        <out>935</out>
                        <file id="[orion origin] Spy x Family [10] [H265 AAC] [1080p+] [GB]-00.00.00.000-00.00.39.909.mp4 37"/>
                        <sourcetrack>
                            <mediatype>audio</mediatype>
                            <trackindex>1</trackindex>
                        </sourcetrack>
                        <link>
                            <linkclipref>[orion origin] Spy x Family [10] [H265 AAC] [1080p+] [GB]-00.00.00.000-00.00.39.909.mp4 24</linkclipref>
                        </link>
                        <link>
                            <linkclipref>[orion origin] Spy x Family [10] [H265 AAC] [1080p+] [GB]-00.00.00.000-00.00.39.909.mp4 45</linkclipref>
                        </link>
                        <link>
                            <linkclipref>[orion origin] Spy x Family [10] [H265 AAC] [1080p+] [GB]-00.00.00.000-00.00.39.909.mp4 57</linkclipref>
                        </link>
                        <comments/>
                    </clipitem>
                    <clipitem id="[orion origin] Spy x Family [10] [H265 AAC] [1080p+] [GB]-00.00.00.000-00.00.39.909.mp4 58">
                        <name>[orion origin] Spy x Family [10] [H265 AAC] [1080p+] [GB]-00.00.00.000-00.00.39.909.mp4</name>
                        <duration>1002</duration>
                        <rate>
                            <timebase>25</timebase>
                            <ntsc>FALSE</ntsc>
                        </rate>
                        <start>935</start>
                        <end>960</end>
                        <enabled>TRUE</enabled>
                        <in>935</in>
                        <out>960</out>
                        <file id="[orion origin] Spy x Family [10] [H265 AAC] [1080p+] [GB]-00.00.00.000-00.00.39.909.mp4 37"/>
                        <sourcetrack>
                            <mediatype>audio</mediatype>
                            <trackindex>1</trackindex>
                        </sourcetrack>
                        <link>
                            <linkclipref>[orion origin] Spy x Family [10] [H265 AAC] [1080p+] [GB]-00.00.00.000-00.00.39.909.mp4 27</linkclipref>
                        </link>
                        <link>
                            <linkclipref>[orion origin] Spy x Family [10] [H265 AAC] [1080p+] [GB]-00.00.00.000-00.00.39.909.mp4 46</linkclipref>
                        </link>
                        <link>
                            <linkclipref>[orion origin] Spy x Family [10] [H265 AAC] [1080p+] [GB]-00.00.00.000-00.00.39.909.mp4 58</linkclipref>
                        </link>
                        <comments/>
                    </clipitem>
                    <clipitem id="[orion origin] Spy x Family [10] [H265 AAC] [1080p+] [GB]-00.00.00.000-00.00.39.909.mp4 59">
                        <name>[orion origin] Spy x Family [10] [H265 AAC] [1080p+] [GB]-00.00.00.000-00.00.39.909.mp4</name>
                        <duration>1002</duration>
                        <rate>
                            <timebase>25</timebase>
                            <ntsc>FALSE</ntsc>
                        </rate>
                        <start>960</start>
                        <end>985</end>
                        <enabled>TRUE</enabled>
                        <in>960</in>
                        <out>985</out>
                        <file id="[orion origin] Spy x Family [10] [H265 AAC] [1080p+] [GB]-00.00.00.000-00.00.39.909.mp4 37"/>
                        <sourcetrack>
                            <mediatype>audio</mediatype>
                            <trackindex>1</trackindex>
                        </sourcetrack>
                        <link>
                            <linkclipref>[orion origin] Spy x Family [10] [H265 AAC] [1080p+] [GB]-00.00.00.000-00.00.39.909.mp4 30</linkclipref>
                        </link>
                        <link>
                            <linkclipref>[orion origin] Spy x Family [10] [H265 AAC] [1080p+] [GB]-00.00.00.000-00.00.39.909.mp4 47</linkclipref>
                        </link>
                        <link>
                            <linkclipref>[orion origin] Spy x Family [10] [H265 AAC] [1080p+] [GB]-00.00.00.000-00.00.39.909.mp4 59</linkclipref>
                        </link>
                        <comments/>
                    </clipitem>
                    <clipitem id="[orion origin] Spy x Family [10] [H265 AAC] [1080p+] [GB]-00.00.00.000-00.00.39.909.mp4 60">
                        <name>[orion origin] Spy x Family [10] [H265 AAC] [1080p+] [GB]-00.00.00.000-00.00.39.909.mp4</name>
                        <duration>1002</duration>
                        <rate>
                            <timebase>25</timebase>
                            <ntsc>FALSE</ntsc>
                        </rate>
                        <start>985</start>
                        <end>1002</end>
                        <enabled>TRUE</enabled>
                        <in>985</in>
                        <out>1002</out>
                        <file id="[orion origin] Spy x Family [10] [H265 AAC] [1080p+] [GB]-00.00.00.000-00.00.39.909.mp4 37"/>
                        <sourcetrack>
                            <mediatype>audio</mediatype>
                            <trackindex>1</trackindex>
                        </sourcetrack>
                        <link>
                            <linkclipref>[orion origin] Spy x Family [10] [H265 AAC] [1080p+] [GB]-00.00.00.000-00.00.39.909.mp4 33</linkclipref>
                        </link>
                        <link>
                            <linkclipref>[orion origin] Spy x Family [10] [H265 AAC] [1080p+] [GB]-00.00.00.000-00.00.39.909.mp4 48</linkclipref>
                        </link>
                        <link>
                            <linkclipref>[orion origin] Spy x Family [10] [H265 AAC] [1080p+] [GB]-00.00.00.000-00.00.39.909.mp4 60</linkclipref>
                        </link>
                        <comments/>
                    </clipitem>
                    <enabled>TRUE</enabled>
                    <locked>FALSE</locked>
                </track>
                <track>
                    <enabled>TRUE</enabled>
                    <locked>FALSE</locked>
                </track>
                <track>
                    <enabled>TRUE</enabled>
                    <locked>FALSE</locked>
                </track>
                <track>
                    <enabled>TRUE</enabled>
                    <locked>FALSE</locked>
                </track>
                <track>
                    <enabled>TRUE</enabled>
                    <locked>FALSE</locked>
                </track>
                <track>
                    <enabled>TRUE</enabled>
                    <locked>FALSE</locked>
                </track>
                <track>
                    <enabled>TRUE</enabled>
                    <locked>FALSE</locked>
                </track>
            </audio>
        </media>
    </sequence>
</xmeml>
