<?xml version="1.0" encoding="UTF-8"?>
<!DOCTYPE xmeml>
<xmeml version="5">
    <sequence>
        <name>Timeline 1 (Resolve)</name>
        <duration>461349</duration>
        <rate>
            <timebase>60</timebase>
            <ntsc>FALSE</ntsc>
        </rate>
        <in>-1</in>
        <out>-1</out>
        <timecode>
            <string>01:00:00:00</string>
            <frame>216000</frame>
            <displayformat>NDF</displayformat>
            <rate>
                <timebase>60</timebase>
                <ntsc>FALSE</ntsc>
            </rate>
        </timecode>
        <media>
            <video>
                <track>
                    <clipitem id="2021-04-17_15-01-18.mp4 0">
                        <name>2021-04-17_15-01-18.mp4</name>
                        <duration>714415</duration>
                        <rate>
                            <timebase>60</timebase>
                            <ntsc>FALSE</ntsc>
                        </rate>
                        <start>306</start>
                        <end>122014</end>
                        <enabled>TRUE</enabled>
                        <in>306</in>
                        <out>122014</out>
                        <file id="2021-04-17_15-01-18.mp4 2">
                            <duration>714415</duration>
                            <rate>
                                <timebase>60</timebase>
                                <ntsc>FALSE</ntsc>
                            </rate>
                            <name>2021-04-17_15-01-18.mp4</name>
                            <pathurl>file:///Volumes/Mojave/videoschnitt-in-arbeit/AWS%20Security%20Fundamentals/2021-04-17_15-01-18.mp4</pathurl>
                            <timecode>
                                <string>00:00:00:00</string>
                                <displayformat>NDF</displayformat>
                                <rate>
                                    <timebase>60</timebase>
                                    <ntsc>FALSE</ntsc>
                                </rate>
                            </timecode>
                            <media>
                                <video>
                                    <duration>714415</duration>
                                    <samplecharacteristics>
                                        <width>1920</width>
                                        <height>1080</height>
                                    </samplecharacteristics>
                                </video>
                                <audio>
                                    <channelcount>2</channelcount>
                                </audio>
                            </media>
                        </file>
                        <compositemode>normal</compositemode>
                        <filter>
                            <enabled>TRUE</enabled>
                            <start>0</start>
                            <end>714415</end>
                            <effect>
                                <name>Basic Motion</name>
                                <effectid>basic</effectid>
                                <effecttype>motion</effecttype>
                                <mediatype>video</mediatype>
                                <effectcategory>motion</effectcategory>
                                <parameter>
                                    <name>Scale</name>
                                    <parameterid>scale</parameterid>
                                    <value>100</value>
                                    <valuemin>0</valuemin>
                                    <valuemax>10000</valuemax>
                                </parameter>
                                <parameter>
                                    <name>Center</name>
                                    <parameterid>center</parameterid>
                                    <value>
                                        <horiz>0</horiz>
                                        <vert>0</vert>
                                    </value>
                                </parameter>
                                <parameter>
                                    <name>Rotation</name>
                                    <parameterid>rotation</parameterid>
                                    <value>0</value>
                                    <valuemin>-100000</valuemin>
                                    <valuemax>100000</valuemax>
                                </parameter>
                                <parameter>
                                    <name>Anchor Point</name>
                                    <parameterid>centerOffset</parameterid>
                                    <value>
                                        <horiz>0</horiz>
                                        <vert>0</vert>
                                    </value>
                                </parameter>
                            </effect>
                        </filter>
                        <filter>
                            <enabled>TRUE</enabled>
                            <start>0</start>
                            <end>714415</end>
                            <effect>
                                <name>Crop</name>
                                <effectid>crop</effectid>
                                <effecttype>motion</effecttype>
                                <mediatype>video</mediatype>
                                <effectcategory>motion</effectcategory>
                                <parameter>
                                    <name>left</name>
                                    <parameterid>left</parameterid>
                                    <value>0</value>
                                    <valuemin>0</valuemin>
                                    <valuemax>100</valuemax>
                                </parameter>
                                <parameter>
                                    <name>right</name>
                                    <parameterid>right</parameterid>
                                    <value>0</value>
                                    <valuemin>0</valuemin>
                                    <valuemax>100</valuemax>
                                </parameter>
                                <parameter>
                                    <name>top</name>
                                    <parameterid>top</parameterid>
                                    <value>0</value>
                                    <valuemin>0</valuemin>
                                    <valuemax>100</valuemax>
                                </parameter>
                                <parameter>
                                    <name>bottom</name>
                                    <parameterid>bottom</parameterid>
                                    <value>0</value>
                                    <valuemin>0</valuemin>
                                    <valuemax>100</valuemax>
                                </parameter>
                            </effect>
                        </filter>
                        <filter>
                            <enabled>TRUE</enabled>
                            <start>0</start>
                            <end>714415</end>
                            <effect>
                                <name>Opacity</name>
                                <effectid>opacity</effectid>
                                <effecttype>motion</effecttype>
                                <mediatype>video</mediatype>
                                <effectcategory>motion</effectcategory>
                                <parameter>
                                    <name>opacity</name>
                                    <parameterid>opacity</parameterid>
                                    <value>100</value>
                                    <valuemin>0</valuemin>
                                    <valuemax>100</valuemax>
                                </parameter>
                            </effect>
                        </filter>
                        <link>
                            <linkclipref>2021-04-17_15-01-18.mp4 0</linkclipref>
                        </link>
                        <link>
                            <linkclipref>2021-04-17_15-01-18.mp4 19</linkclipref>
                        </link>
                    </clipitem>
                    <clipitem id="2021-04-17_15-01-18.mp4 3">
                        <name>2021-04-17_15-01-18.mp4</name>
                        <duration>714415</duration>
                        <rate>
                            <timebase>60</timebase>
                            <ntsc>FALSE</ntsc>
                        </rate>
                        <start>122014</start>
                        <end>171309</end>
                        <enabled>TRUE</enabled>
                        <in>181062</in>
                        <out>230357</out>
                        <file id="2021-04-17_15-01-18.mp4 2"/>
                        <compositemode>normal</compositemode>
                        <filter>
                            <enabled>TRUE</enabled>
                            <start>0</start>
                            <end>714415</end>
                            <effect>
                                <name>Basic Motion</name>
                                <effectid>basic</effectid>
                                <effecttype>motion</effecttype>
                                <mediatype>video</mediatype>
                                <effectcategory>motion</effectcategory>
                                <parameter>
                                    <name>Scale</name>
                                    <parameterid>scale</parameterid>
                                    <value>100</value>
                                    <valuemin>0</valuemin>
                                    <valuemax>10000</valuemax>
                                </parameter>
                                <parameter>
                                    <name>Center</name>
                                    <parameterid>center</parameterid>
                                    <value>
                                        <horiz>0</horiz>
                                        <vert>0</vert>
                                    </value>
                                </parameter>
                                <parameter>
                                    <name>Rotation</name>
                                    <parameterid>rotation</parameterid>
                                    <value>0</value>
                                    <valuemin>-100000</valuemin>
                                    <valuemax>100000</valuemax>
                                </parameter>
                                <parameter>
                                    <name>Anchor Point</name>
                                    <parameterid>centerOffset</parameterid>
                                    <value>
                                        <horiz>0</horiz>
                                        <vert>0</vert>
                                    </value>
                                </parameter>
                            </effect>
                        </filter>
                        <filter>
                            <enabled>TRUE</enabled>
                            <start>0</start>
                            <end>714415</end>
                            <effect>
                                <name>Crop</name>
                                <effectid>crop</effectid>
                                <effecttype>motion</effecttype>
                                <mediatype>video</mediatype>
                                <effectcategory>motion</effectcategory>
                                <parameter>
                                    <name>left</name>
                                    <parameterid>left</parameterid>
                                    <value>0</value>
                                    <valuemin>0</valuemin>
                                    <valuemax>100</valuemax>
                                </parameter>
                                <parameter>
                                    <name>right</name>
                                    <parameterid>right</parameterid>
                                    <value>0</value>
                                    <valuemin>0</valuemin>
                                    <valuemax>100</valuemax>
                                </parameter>
                                <parameter>
                                    <name>top</name>
                                    <parameterid>top</parameterid>
                                    <value>0</value>
                                    <valuemin>0</valuemin>
                                    <valuemax>100</valuemax>
                                </parameter>
                                <parameter>
                                    <name>bottom</name>
                                    <parameterid>bottom</parameterid>
                                    <value>0</value>
                                    <valuemin>0</valuemin>
                                    <valuemax>100</valuemax>
                                </parameter>
                            </effect>
                        </filter>
                        <filter>
                            <enabled>TRUE</enabled>
                            <start>0</start>
                            <end>714415</end>
                            <effect>
                                <name>Opacity</name>
                                <effectid>opacity</effectid>
                                <effecttype>motion</effecttype>
                                <mediatype>video</mediatype>
                                <effectcategory>motion</effectcategory>
                                <parameter>
                                    <name>opacity</name>
                                    <parameterid>opacity</parameterid>
                                    <value>100</value>
                                    <valuemin>0</valuemin>
                                    <valuemax>100</valuemax>
                                </parameter>
                            </effect>
                        </filter>
                        <link>
                            <linkclipref>2021-04-17_15-01-18.mp4 3</linkclipref>
                        </link>
                        <link>
                            <linkclipref>2021-04-17_15-01-18.mp4 20</linkclipref>
                        </link>
                    </clipitem>
                    <clipitem id="2021-04-17_15-01-18.mp4 5">
                        <name>2021-04-17_15-01-18.mp4</name>
                        <duration>714415</duration>
                        <rate>
                            <timebase>60</timebase>
                            <ntsc>FALSE</ntsc>
                        </rate>
                        <start>171309</start>
                        <end>220715</end>
                        <enabled>TRUE</enabled>
                        <in>231776</in>
                        <out>281182</out>
                        <file id="2021-04-17_15-01-18.mp4 2"/>
                        <compositemode>normal</compositemode>
                        <filter>
                            <enabled>TRUE</enabled>
                            <start>0</start>
                            <end>714415</end>
                            <effect>
                                <name>Basic Motion</name>
                                <effectid>basic</effectid>
                                <effecttype>motion</effecttype>
                                <mediatype>video</mediatype>
                                <effectcategory>motion</effectcategory>
                                <parameter>
                                    <name>Scale</name>
                                    <parameterid>scale</parameterid>
                                    <value>100</value>
                                    <valuemin>0</valuemin>
                                    <valuemax>10000</valuemax>
                                </parameter>
                                <parameter>
                                    <name>Center</name>
                                    <parameterid>center</parameterid>
                                    <value>
                                        <horiz>0</horiz>
                                        <vert>0</vert>
                                    </value>
                                </parameter>
                                <parameter>
                                    <name>Rotation</name>
                                    <parameterid>rotation</parameterid>
                                    <value>0</value>
                                    <valuemin>-100000</valuemin>
                                    <valuemax>100000</valuemax>
                                </parameter>
                                <parameter>
                                    <name>Anchor Point</name>
                                    <parameterid>centerOffset</parameterid>
                                    <value>
                                        <horiz>0</horiz>
                                        <vert>0</vert>
                                    </value>
                                </parameter>
                            </effect>
                        </filter>
                        <filter>
                            <enabled>TRUE</enabled>
                            <start>0</start>
                            <end>714415</end>
                            <effect>
                                <name>Crop</name>
                                <effectid>crop</effectid>
                                <effecttype>motion</effecttype>
                                <mediatype>video</mediatype>
                                <effectcategory>motion</effectcategory>
                                <parameter>
                                    <name>left</name>
                                    <parameterid>left</parameterid>
                                    <value>0</value>
                                    <valuemin>0</valuemin>
                                    <valuemax>100</valuemax>
                                </parameter>
                                <parameter>
                                    <name>right</name>
                                    <parameterid>right</parameterid>
                                    <value>0</value>
                                    <valuemin>0</valuemin>
                                    <valuemax>100</valuemax>
                                </parameter>
                                <parameter>
                                    <name>top</name>
                                    <parameterid>top</parameterid>
                                    <value>0</value>
                                    <valuemin>0</valuemin>
                                    <valuemax>100</valuemax>
                                </parameter>
                                <parameter>
                                    <name>bottom</name>
                                    <parameterid>bottom</parameterid>
                                    <value>0</value>
                                    <valuemin>0</valuemin>
                                    <valuemax>100</valuemax>
                                </parameter>
                            </effect>
                        </filter>
                        <filter>
                            <enabled>TRUE</enabled>
                            <start>0</start>
                            <end>714415</end>
                            <effect>
                                <name>Opacity</name>
                                <effectid>opacity</effectid>
                                <effecttype>motion</effecttype>
                                <mediatype>video</mediatype>
                                <effectcategory>motion</effectcategory>
                                <parameter>
                                    <name>opacity</name>
                                    <parameterid>opacity</parameterid>
                                    <value>100</value>
                                    <valuemin>0</valuemin>
                                    <valuemax>100</valuemax>
                                </parameter>
                            </effect>
                        </filter>
                        <link>
                            <linkclipref>2021-04-17_15-01-18.mp4 5</linkclipref>
                        </link>
                        <link>
                            <linkclipref>2021-04-17_15-01-18.mp4 21</linkclipref>
                        </link>
                    </clipitem>
                    <clipitem id="2021-04-17_15-01-18.mp4 7">
                        <name>2021-04-17_15-01-18.mp4</name>
                        <duration>714415</duration>
                        <rate>
                            <timebase>60</timebase>
                            <ntsc>FALSE</ntsc>
                        </rate>
                        <start>220715</start>
                        <end>279872</end>
                        <enabled>TRUE</enabled>
                        <in>319444</in>
                        <out>378601</out>
                        <file id="2021-04-17_15-01-18.mp4 2"/>
                        <compositemode>normal</compositemode>
                        <filter>
                            <enabled>TRUE</enabled>
                            <start>0</start>
                            <end>714415</end>
                            <effect>
                                <name>Basic Motion</name>
                                <effectid>basic</effectid>
                                <effecttype>motion</effecttype>
                                <mediatype>video</mediatype>
                                <effectcategory>motion</effectcategory>
                                <parameter>
                                    <name>Scale</name>
                                    <parameterid>scale</parameterid>
                                    <value>100</value>
                                    <valuemin>0</valuemin>
                                    <valuemax>10000</valuemax>
                                </parameter>
                                <parameter>
                                    <name>Center</name>
                                    <parameterid>center</parameterid>
                                    <value>
                                        <horiz>0</horiz>
                                        <vert>0</vert>
                                    </value>
                                </parameter>
                                <parameter>
                                    <name>Rotation</name>
                                    <parameterid>rotation</parameterid>
                                    <value>0</value>
                                    <valuemin>-100000</valuemin>
                                    <valuemax>100000</valuemax>
                                </parameter>
                                <parameter>
                                    <name>Anchor Point</name>
                                    <parameterid>centerOffset</parameterid>
                                    <value>
                                        <horiz>0</horiz>
                                        <vert>0</vert>
                                    </value>
                                </parameter>
                            </effect>
                        </filter>
                        <filter>
                            <enabled>TRUE</enabled>
                            <start>0</start>
                            <end>714415</end>
                            <effect>
                                <name>Crop</name>
                                <effectid>crop</effectid>
                                <effecttype>motion</effecttype>
                                <mediatype>video</mediatype>
                                <effectcategory>motion</effectcategory>
                                <parameter>
                                    <name>left</name>
                                    <parameterid>left</parameterid>
                                    <value>0</value>
                                    <valuemin>0</valuemin>
                                    <valuemax>100</valuemax>
                                </parameter>
                                <parameter>
                                    <name>right</name>
                                    <parameterid>right</parameterid>
                                    <value>0</value>
                                    <valuemin>0</valuemin>
                                    <valuemax>100</valuemax>
                                </parameter>
                                <parameter>
                                    <name>top</name>
                                    <parameterid>top</parameterid>
                                    <value>0</value>
                                    <valuemin>0</valuemin>
                                    <valuemax>100</valuemax>
                                </parameter>
                                <parameter>
                                    <name>bottom</name>
                                    <parameterid>bottom</parameterid>
                                    <value>0</value>
                                    <valuemin>0</valuemin>
                                    <valuemax>100</valuemax>
                                </parameter>
                            </effect>
                        </filter>
                        <filter>
                            <enabled>TRUE</enabled>
                            <start>0</start>
                            <end>714415</end>
                            <effect>
                                <name>Opacity</name>
                                <effectid>opacity</effectid>
                                <effecttype>motion</effecttype>
                                <mediatype>video</mediatype>
                                <effectcategory>motion</effectcategory>
                                <parameter>
                                    <name>opacity</name>
                                    <parameterid>opacity</parameterid>
                                    <value>100</value>
                                    <valuemin>0</valuemin>
                                    <valuemax>100</valuemax>
                                </parameter>
                            </effect>
                        </filter>
                        <link>
                            <linkclipref>2021-04-17_15-01-18.mp4 7</linkclipref>
                        </link>
                        <link>
                            <linkclipref>2021-04-17_15-01-18.mp4 22</linkclipref>
                        </link>
                    </clipitem>
                    <clipitem id="2021-04-17_15-01-18.mp4 9">
                        <name>2021-04-17_15-01-18.mp4</name>
                        <duration>714415</duration>
                        <rate>
                            <timebase>60</timebase>
                            <ntsc>FALSE</ntsc>
                        </rate>
                        <start>279872</start>
                        <end>281754</end>
                        <enabled>TRUE</enabled>
                        <in>415689</in>
                        <out>417571</out>
                        <file id="2021-04-17_15-01-18.mp4 2"/>
                        <compositemode>normal</compositemode>
                        <filter>
                            <enabled>TRUE</enabled>
                            <start>0</start>
                            <end>714415</end>
                            <effect>
                                <name>Basic Motion</name>
                                <effectid>basic</effectid>
                                <effecttype>motion</effecttype>
                                <mediatype>video</mediatype>
                                <effectcategory>motion</effectcategory>
                                <parameter>
                                    <name>Scale</name>
                                    <parameterid>scale</parameterid>
                                    <value>100</value>
                                    <valuemin>0</valuemin>
                                    <valuemax>10000</valuemax>
                                </parameter>
                                <parameter>
                                    <name>Center</name>
                                    <parameterid>center</parameterid>
                                    <value>
                                        <horiz>0</horiz>
                                        <vert>0</vert>
                                    </value>
                                </parameter>
                                <parameter>
                                    <name>Rotation</name>
                                    <parameterid>rotation</parameterid>
                                    <value>0</value>
                                    <valuemin>-100000</valuemin>
                                    <valuemax>100000</valuemax>
                                </parameter>
                                <parameter>
                                    <name>Anchor Point</name>
                                    <parameterid>centerOffset</parameterid>
                                    <value>
                                        <horiz>0</horiz>
                                        <vert>0</vert>
                                    </value>
                                </parameter>
                            </effect>
                        </filter>
                        <filter>
                            <enabled>TRUE</enabled>
                            <start>0</start>
                            <end>714415</end>
                            <effect>
                                <name>Crop</name>
                                <effectid>crop</effectid>
                                <effecttype>motion</effecttype>
                                <mediatype>video</mediatype>
                                <effectcategory>motion</effectcategory>
                                <parameter>
                                    <name>left</name>
                                    <parameterid>left</parameterid>
                                    <value>0</value>
                                    <valuemin>0</valuemin>
                                    <valuemax>100</valuemax>
                                </parameter>
                                <parameter>
                                    <name>right</name>
                                    <parameterid>right</parameterid>
                                    <value>0</value>
                                    <valuemin>0</valuemin>
                                    <valuemax>100</valuemax>
                                </parameter>
                                <parameter>
                                    <name>top</name>
                                    <parameterid>top</parameterid>
                                    <value>0</value>
                                    <valuemin>0</valuemin>
                                    <valuemax>100</valuemax>
                                </parameter>
                                <parameter>
                                    <name>bottom</name>
                                    <parameterid>bottom</parameterid>
                                    <value>0</value>
                                    <valuemin>0</valuemin>
                                    <valuemax>100</valuemax>
                                </parameter>
                            </effect>
                        </filter>
                        <filter>
                            <enabled>TRUE</enabled>
                            <start>0</start>
                            <end>714415</end>
                            <effect>
                                <name>Opacity</name>
                                <effectid>opacity</effectid>
                                <effecttype>motion</effecttype>
                                <mediatype>video</mediatype>
                                <effectcategory>motion</effectcategory>
                                <parameter>
                                    <name>opacity</name>
                                    <parameterid>opacity</parameterid>
                                    <value>100</value>
                                    <valuemin>0</valuemin>
                                    <valuemax>100</valuemax>
                                </parameter>
                            </effect>
                        </filter>
                        <link>
                            <linkclipref>2021-04-17_15-01-18.mp4 9</linkclipref>
                        </link>
                        <link>
                            <linkclipref>2021-04-17_15-01-18.mp4 23</linkclipref>
                        </link>
                    </clipitem>
                    <clipitem id="2021-04-17_15-01-18.mp4 11">
                        <name>2021-04-17_15-01-18.mp4</name>
                        <duration>714415</duration>
                        <rate>
                            <timebase>60</timebase>
                            <ntsc>FALSE</ntsc>
                        </rate>
                        <start>281754</start>
                        <end>347467</end>
                        <enabled>TRUE</enabled>
                        <in>419154</in>
                        <out>484867</out>
                        <file id="2021-04-17_15-01-18.mp4 2"/>
                        <compositemode>normal</compositemode>
                        <filter>
                            <enabled>TRUE</enabled>
                            <start>0</start>
                            <end>714415</end>
                            <effect>
                                <name>Basic Motion</name>
                                <effectid>basic</effectid>
                                <effecttype>motion</effecttype>
                                <mediatype>video</mediatype>
                                <effectcategory>motion</effectcategory>
                                <parameter>
                                    <name>Scale</name>
                                    <parameterid>scale</parameterid>
                                    <value>100</value>
                                    <valuemin>0</valuemin>
                                    <valuemax>10000</valuemax>
                                </parameter>
                                <parameter>
                                    <name>Center</name>
                                    <parameterid>center</parameterid>
                                    <value>
                                        <horiz>0</horiz>
                                        <vert>0</vert>
                                    </value>
                                </parameter>
                                <parameter>
                                    <name>Rotation</name>
                                    <parameterid>rotation</parameterid>
                                    <value>0</value>
                                    <valuemin>-100000</valuemin>
                                    <valuemax>100000</valuemax>
                                </parameter>
                                <parameter>
                                    <name>Anchor Point</name>
                                    <parameterid>centerOffset</parameterid>
                                    <value>
                                        <horiz>0</horiz>
                                        <vert>0</vert>
                                    </value>
                                </parameter>
                            </effect>
                        </filter>
                        <filter>
                            <enabled>TRUE</enabled>
                            <start>0</start>
                            <end>714415</end>
                            <effect>
                                <name>Crop</name>
                                <effectid>crop</effectid>
                                <effecttype>motion</effecttype>
                                <mediatype>video</mediatype>
                                <effectcategory>motion</effectcategory>
                                <parameter>
                                    <name>left</name>
                                    <parameterid>left</parameterid>
                                    <value>0</value>
                                    <valuemin>0</valuemin>
                                    <valuemax>100</valuemax>
                                </parameter>
                                <parameter>
                                    <name>right</name>
                                    <parameterid>right</parameterid>
                                    <value>0</value>
                                    <valuemin>0</valuemin>
                                    <valuemax>100</valuemax>
                                </parameter>
                                <parameter>
                                    <name>top</name>
                                    <parameterid>top</parameterid>
                                    <value>0</value>
                                    <valuemin>0</valuemin>
                                    <valuemax>100</valuemax>
                                </parameter>
                                <parameter>
                                    <name>bottom</name>
                                    <parameterid>bottom</parameterid>
                                    <value>0</value>
                                    <valuemin>0</valuemin>
                                    <valuemax>100</valuemax>
                                </parameter>
                            </effect>
                        </filter>
                        <filter>
                            <enabled>TRUE</enabled>
                            <start>0</start>
                            <end>714415</end>
                            <effect>
                                <name>Opacity</name>
                                <effectid>opacity</effectid>
                                <effecttype>motion</effecttype>
                                <mediatype>video</mediatype>
                                <effectcategory>motion</effectcategory>
                                <parameter>
                                    <name>opacity</name>
                                    <parameterid>opacity</parameterid>
                                    <value>100</value>
                                    <valuemin>0</valuemin>
                                    <valuemax>100</valuemax>
                                </parameter>
                            </effect>
                        </filter>
                        <link>
                            <linkclipref>2021-04-17_15-01-18.mp4 11</linkclipref>
                        </link>
                        <link>
                            <linkclipref>2021-04-17_15-01-18.mp4 24</linkclipref>
                        </link>
                    </clipitem>
                    <clipitem id="2021-04-17_15-01-18.mp4 13">
                        <name>2021-04-17_15-01-18.mp4</name>
                        <duration>714415</duration>
                        <rate>
                            <timebase>60</timebase>
                            <ntsc>FALSE</ntsc>
                        </rate>
                        <start>347467</start>
                        <end>408786</end>
                        <enabled>TRUE</enabled>
                        <in>523684</in>
                        <out>585003</out>
                        <file id="2021-04-17_15-01-18.mp4 2"/>
                        <compositemode>normal</compositemode>
                        <filter>
                            <enabled>TRUE</enabled>
                            <start>0</start>
                            <end>714415</end>
                            <effect>
                                <name>Basic Motion</name>
                                <effectid>basic</effectid>
                                <effecttype>motion</effecttype>
                                <mediatype>video</mediatype>
                                <effectcategory>motion</effectcategory>
                                <parameter>
                                    <name>Scale</name>
                                    <parameterid>scale</parameterid>
                                    <value>100</value>
                                    <valuemin>0</valuemin>
                                    <valuemax>10000</valuemax>
                                </parameter>
                                <parameter>
                                    <name>Center</name>
                                    <parameterid>center</parameterid>
                                    <value>
                                        <horiz>0</horiz>
                                        <vert>0</vert>
                                    </value>
                                </parameter>
                                <parameter>
                                    <name>Rotation</name>
                                    <parameterid>rotation</parameterid>
                                    <value>0</value>
                                    <valuemin>-100000</valuemin>
                                    <valuemax>100000</valuemax>
                                </parameter>
                                <parameter>
                                    <name>Anchor Point</name>
                                    <parameterid>centerOffset</parameterid>
                                    <value>
                                        <horiz>0</horiz>
                                        <vert>0</vert>
                                    </value>
                                </parameter>
                            </effect>
                        </filter>
                        <filter>
                            <enabled>TRUE</enabled>
                            <start>0</start>
                            <end>714415</end>
                            <effect>
                                <name>Crop</name>
                                <effectid>crop</effectid>
                                <effecttype>motion</effecttype>
                                <mediatype>video</mediatype>
                                <effectcategory>motion</effectcategory>
                                <parameter>
                                    <name>left</name>
                                    <parameterid>left</parameterid>
                                    <value>0</value>
                                    <valuemin>0</valuemin>
                                    <valuemax>100</valuemax>
                                </parameter>
                                <parameter>
                                    <name>right</name>
                                    <parameterid>right</parameterid>
                                    <value>0</value>
                                    <valuemin>0</valuemin>
                                    <valuemax>100</valuemax>
                                </parameter>
                                <parameter>
                                    <name>top</name>
                                    <parameterid>top</parameterid>
                                    <value>0</value>
                                    <valuemin>0</valuemin>
                                    <valuemax>100</valuemax>
                                </parameter>
                                <parameter>
                                    <name>bottom</name>
                                    <parameterid>bottom</parameterid>
                                    <value>0</value>
                                    <valuemin>0</valuemin>
                                    <valuemax>100</valuemax>
                                </parameter>
                            </effect>
                        </filter>
                        <filter>
                            <enabled>TRUE</enabled>
                            <start>0</start>
                            <end>714415</end>
                            <effect>
                                <name>Opacity</name>
                                <effectid>opacity</effectid>
                                <effecttype>motion</effecttype>
                                <mediatype>video</mediatype>
                                <effectcategory>motion</effectcategory>
                                <parameter>
                                    <name>opacity</name>
                                    <parameterid>opacity</parameterid>
                                    <value>100</value>
                                    <valuemin>0</valuemin>
                                    <valuemax>100</valuemax>
                                </parameter>
                            </effect>
                        </filter>
                        <link>
                            <linkclipref>2021-04-17_15-01-18.mp4 13</linkclipref>
                        </link>
                        <link>
                            <linkclipref>2021-04-17_15-01-18.mp4 25</linkclipref>
                        </link>
                    </clipitem>
                    <clipitem id="2021-04-17_15-01-18.mp4 15">
                        <name>2021-04-17_15-01-18.mp4</name>
                        <duration>714415</duration>
                        <rate>
                            <timebase>60</timebase>
                            <ntsc>FALSE</ntsc>
                        </rate>
                        <start>408786</start>
                        <end>453894</end>
                        <enabled>TRUE</enabled>
                        <in>587599</in>
                        <out>632707</out>
                        <file id="2021-04-17_15-01-18.mp4 2"/>
                        <compositemode>normal</compositemode>
                        <filter>
                            <enabled>TRUE</enabled>
                            <start>0</start>
                            <end>714415</end>
                            <effect>
                                <name>Basic Motion</name>
                                <effectid>basic</effectid>
                                <effecttype>motion</effecttype>
                                <mediatype>video</mediatype>
                                <effectcategory>motion</effectcategory>
                                <parameter>
                                    <name>Scale</name>
                                    <parameterid>scale</parameterid>
                                    <value>100</value>
                                    <valuemin>0</valuemin>
                                    <valuemax>10000</valuemax>
                                </parameter>
                                <parameter>
                                    <name>Center</name>
                                    <parameterid>center</parameterid>
                                    <value>
                                        <horiz>0</horiz>
                                        <vert>0</vert>
                                    </value>
                                </parameter>
                                <parameter>
                                    <name>Rotation</name>
                                    <parameterid>rotation</parameterid>
                                    <value>0</value>
                                    <valuemin>-100000</valuemin>
                                    <valuemax>100000</valuemax>
                                </parameter>
                                <parameter>
                                    <name>Anchor Point</name>
                                    <parameterid>centerOffset</parameterid>
                                    <value>
                                        <horiz>0</horiz>
                                        <vert>0</vert>
                                    </value>
                                </parameter>
                            </effect>
                        </filter>
                        <filter>
                            <enabled>TRUE</enabled>
                            <start>0</start>
                            <end>714415</end>
                            <effect>
                                <name>Crop</name>
                                <effectid>crop</effectid>
                                <effecttype>motion</effecttype>
                                <mediatype>video</mediatype>
                                <effectcategory>motion</effectcategory>
                                <parameter>
                                    <name>left</name>
                                    <parameterid>left</parameterid>
                                    <value>0</value>
                                    <valuemin>0</valuemin>
                                    <valuemax>100</valuemax>
                                </parameter>
                                <parameter>
                                    <name>right</name>
                                    <parameterid>right</parameterid>
                                    <value>0</value>
                                    <valuemin>0</valuemin>
                                    <valuemax>100</valuemax>
                                </parameter>
                                <parameter>
                                    <name>top</name>
                                    <parameterid>top</parameterid>
                                    <value>0</value>
                                    <valuemin>0</valuemin>
                                    <valuemax>100</valuemax>
                                </parameter>
                                <parameter>
                                    <name>bottom</name>
                                    <parameterid>bottom</parameterid>
                                    <value>0</value>
                                    <valuemin>0</valuemin>
                                    <valuemax>100</valuemax>
                                </parameter>
                            </effect>
                        </filter>
                        <filter>
                            <enabled>TRUE</enabled>
                            <start>0</start>
                            <end>714415</end>
                            <effect>
                                <name>Opacity</name>
                                <effectid>opacity</effectid>
                                <effecttype>motion</effecttype>
                                <mediatype>video</mediatype>
                                <effectcategory>motion</effectcategory>
                                <parameter>
                                    <name>opacity</name>
                                    <parameterid>opacity</parameterid>
                                    <value>100</value>
                                    <valuemin>0</valuemin>
                                    <valuemax>100</valuemax>
                                </parameter>
                            </effect>
                        </filter>
                        <link>
                            <linkclipref>2021-04-17_15-01-18.mp4 15</linkclipref>
                        </link>
                        <link>
                            <linkclipref>2021-04-17_15-01-18.mp4 26</linkclipref>
                        </link>
                    </clipitem>
                    <clipitem id="2021-04-17_15-01-18.mp4 17">
                        <name>2021-04-17_15-01-18.mp4</name>
                        <duration>714415</duration>
                        <rate>
                            <timebase>60</timebase>
                            <ntsc>FALSE</ntsc>
                        </rate>
                        <start>453894</start>
                        <end>461349</end>
                        <enabled>TRUE</enabled>
                        <in>644438</in>
                        <out>651893</out>
                        <file id="2021-04-17_15-01-18.mp4 2"/>
                        <compositemode>normal</compositemode>
                        <filter>
                            <enabled>TRUE</enabled>
                            <start>0</start>
                            <end>714415</end>
                            <effect>
                                <name>Basic Motion</name>
                                <effectid>basic</effectid>
                                <effecttype>motion</effecttype>
                                <mediatype>video</mediatype>
                                <effectcategory>motion</effectcategory>
                                <parameter>
                                    <name>Scale</name>
                                    <parameterid>scale</parameterid>
                                    <value>100</value>
                                    <valuemin>0</valuemin>
                                    <valuemax>10000</valuemax>
                                </parameter>
                                <parameter>
                                    <name>Center</name>
                                    <parameterid>center</parameterid>
                                    <value>
                                        <horiz>0</horiz>
                                        <vert>0</vert>
                                    </value>
                                </parameter>
                                <parameter>
                                    <name>Rotation</name>
                                    <parameterid>rotation</parameterid>
                                    <value>0</value>
                                    <valuemin>-100000</valuemin>
                                    <valuemax>100000</valuemax>
                                </parameter>
                                <parameter>
                                    <name>Anchor Point</name>
                                    <parameterid>centerOffset</parameterid>
                                    <value>
                                        <horiz>0</horiz>
                                        <vert>0</vert>
                                    </value>
                                </parameter>
                            </effect>
                        </filter>
                        <filter>
                            <enabled>TRUE</enabled>
                            <start>0</start>
                            <end>714415</end>
                            <effect>
                                <name>Crop</name>
                                <effectid>crop</effectid>
                                <effecttype>motion</effecttype>
                                <mediatype>video</mediatype>
                                <effectcategory>motion</effectcategory>
                                <parameter>
                                    <name>left</name>
                                    <parameterid>left</parameterid>
                                    <value>0</value>
                                    <valuemin>0</valuemin>
                                    <valuemax>100</valuemax>
                                </parameter>
                                <parameter>
                                    <name>right</name>
                                    <parameterid>right</parameterid>
                                    <value>0</value>
                                    <valuemin>0</valuemin>
                                    <valuemax>100</valuemax>
                                </parameter>
                                <parameter>
                                    <name>top</name>
                                    <parameterid>top</parameterid>
                                    <value>0</value>
                                    <valuemin>0</valuemin>
                                    <valuemax>100</valuemax>
                                </parameter>
                                <parameter>
                                    <name>bottom</name>
                                    <parameterid>bottom</parameterid>
                                    <value>0</value>
                                    <valuemin>0</valuemin>
                                    <valuemax>100</valuemax>
                                </parameter>
                            </effect>
                        </filter>
                        <filter>
                            <enabled>TRUE</enabled>
                            <start>0</start>
                            <end>714415</end>
                            <effect>
                                <name>Opacity</name>
                                <effectid>opacity</effectid>
                                <effecttype>motion</effecttype>
                                <mediatype>video</mediatype>
                                <effectcategory>motion</effectcategory>
                                <parameter>
                                    <name>opacity</name>
                                    <parameterid>opacity</parameterid>
                                    <value>100</value>
                                    <valuemin>0</valuemin>
                                    <valuemax>100</valuemax>
                                </parameter>
                            </effect>
                        </filter>
                        <link>
                            <linkclipref>2021-04-17_15-01-18.mp4 17</linkclipref>
                        </link>
                        <link>
                            <linkclipref>2021-04-17_15-01-18.mp4 27</linkclipref>
                        </link>
                    </clipitem>
                    <enabled>TRUE</enabled>
                    <locked>FALSE</locked>
                </track>
                <format>
                    <samplecharacteristics>
                        <width>1920</width>
                        <height>1080</height>
                        <pixelaspectratio>square</pixelaspectratio>
                        <rate>
                            <timebase>60</timebase>
                            <ntsc>FALSE</ntsc>
                        </rate>
                        <codec>
                            <appspecificdata>
                                <appname>Final Cut Pro</appname>
                                <appmanufacturer>Apple Inc.</appmanufacturer>
                                <data>
                                    <qtcodec/>
                                </data>
                            </appspecificdata>
                        </codec>
                    </samplecharacteristics>
                </format>
            </video>
            <audio>
                <track>
                    <clipitem id="2021-04-17_15-01-18.mp4 19">
                        <name>2021-04-17_15-01-18.mp4</name>
                        <duration>714415</duration>
                        <rate>
                            <timebase>60</timebase>
                            <ntsc>FALSE</ntsc>
                        </rate>
                        <start>306</start>
                        <end>122014</end>
                        <enabled>TRUE</enabled>
                        <in>306</in>
                        <out>122014</out>
                        <file id="2021-04-17_15-01-18.mp4 2"/>
                        <sourcetrack>
                            <mediatype>audio</mediatype>
                            <trackindex>1</trackindex>
                        </sourcetrack>
                        <link>
                            <linkclipref>2021-04-17_15-01-18.mp4 0</linkclipref>
                        </link>
                        <link>
                            <linkclipref>2021-04-17_15-01-18.mp4 19</linkclipref>
                        </link>
                    </clipitem>
                    <clipitem id="2021-04-17_15-01-18.mp4 20">
                        <name>2021-04-17_15-01-18.mp4</name>
                        <duration>714415</duration>
                        <rate>
                            <timebase>60</timebase>
                            <ntsc>FALSE</ntsc>
                        </rate>
                        <start>122014</start>
                        <end>171309</end>
                        <enabled>TRUE</enabled>
                        <in>181062</in>
                        <out>230357</out>
                        <file id="2021-04-17_15-01-18.mp4 2"/>
                        <sourcetrack>
                            <mediatype>audio</mediatype>
                            <trackindex>1</trackindex>
                        </sourcetrack>
                        <link>
                            <linkclipref>2021-04-17_15-01-18.mp4 3</linkclipref>
                        </link>
                        <link>
                            <linkclipref>2021-04-17_15-01-18.mp4 20</linkclipref>
                        </link>
                    </clipitem>
                    <clipitem id="2021-04-17_15-01-18.mp4 21">
                        <name>2021-04-17_15-01-18.mp4</name>
                        <duration>714415</duration>
                        <rate>
                            <timebase>60</timebase>
                            <ntsc>FALSE</ntsc>
                        </rate>
                        <start>171309</start>
                        <end>220715</end>
                        <enabled>TRUE</enabled>
                        <in>231776</in>
                        <out>281182</out>
                        <file id="2021-04-17_15-01-18.mp4 2"/>
                        <sourcetrack>
                            <mediatype>audio</mediatype>
                            <trackindex>1</trackindex>
                        </sourcetrack>
                        <link>
                            <linkclipref>2021-04-17_15-01-18.mp4 5</linkclipref>
                        </link>
                        <link>
                            <linkclipref>2021-04-17_15-01-18.mp4 21</linkclipref>
                        </link>
                    </clipitem>
                    <clipitem id="2021-04-17_15-01-18.mp4 22">
                        <name>2021-04-17_15-01-18.mp4</name>
                        <duration>714415</duration>
                        <rate>
                            <timebase>60</timebase>
                            <ntsc>FALSE</ntsc>
                        </rate>
                        <start>220715</start>
                        <end>279872</end>
                        <enabled>TRUE</enabled>
                        <in>319444</in>
                        <out>378601</out>
                        <file id="2021-04-17_15-01-18.mp4 2"/>
                        <sourcetrack>
                            <mediatype>audio</mediatype>
                            <trackindex>1</trackindex>
                        </sourcetrack>
                        <link>
                            <linkclipref>2021-04-17_15-01-18.mp4 7</linkclipref>
                        </link>
                        <link>
                            <linkclipref>2021-04-17_15-01-18.mp4 22</linkclipref>
                        </link>
                    </clipitem>
                    <clipitem id="2021-04-17_15-01-18.mp4 23">
                        <name>2021-04-17_15-01-18.mp4</name>
                        <duration>714415</duration>
                        <rate>
                            <timebase>60</timebase>
                            <ntsc>FALSE</ntsc>
                        </rate>
                        <start>279872</start>
                        <end>281754</end>
                        <enabled>TRUE</enabled>
                        <in>415689</in>
                        <out>417571</out>
                        <file id="2021-04-17_15-01-18.mp4 2"/>
                        <sourcetrack>
                            <mediatype>audio</mediatype>
                            <trackindex>1</trackindex>
                        </sourcetrack>
                        <link>
                            <linkclipref>2021-04-17_15-01-18.mp4 9</linkclipref>
                        </link>
                        <link>
                            <linkclipref>2021-04-17_15-01-18.mp4 23</linkclipref>
                        </link>
                    </clipitem>
                    <clipitem id="2021-04-17_15-01-18.mp4 24">
                        <name>2021-04-17_15-01-18.mp4</name>
                        <duration>714415</duration>
                        <rate>
                            <timebase>60</timebase>
                            <ntsc>FALSE</ntsc>
                        </rate>
                        <start>281754</start>
                        <end>347467</end>
                        <enabled>TRUE</enabled>
                        <in>419154</in>
                        <out>484867</out>
                        <file id="2021-04-17_15-01-18.mp4 2"/>
                        <sourcetrack>
                            <mediatype>audio</mediatype>
                            <trackindex>1</trackindex>
                        </sourcetrack>
                        <link>
                            <linkclipref>2021-04-17_15-01-18.mp4 11</linkclipref>
                        </link>
                        <link>
                            <linkclipref>2021-04-17_15-01-18.mp4 24</linkclipref>
                        </link>
                    </clipitem>
                    <clipitem id="2021-04-17_15-01-18.mp4 25">
                        <name>2021-04-17_15-01-18.mp4</name>
                        <duration>714415</duration>
                        <rate>
                            <timebase>60</timebase>
                            <ntsc>FALSE</ntsc>
                        </rate>
                        <start>347467</start>
                        <end>408786</end>
                        <enabled>TRUE</enabled>
                        <in>523684</in>
                        <out>585003</out>
                        <file id="2021-04-17_15-01-18.mp4 2"/>
                        <sourcetrack>
                            <mediatype>audio</mediatype>
                            <trackindex>1</trackindex>
                        </sourcetrack>
                        <link>
                            <linkclipref>2021-04-17_15-01-18.mp4 13</linkclipref>
                        </link>
                        <link>
                            <linkclipref>2021-04-17_15-01-18.mp4 25</linkclipref>
                        </link>
                    </clipitem>
                    <clipitem id="2021-04-17_15-01-18.mp4 26">
                        <name>2021-04-17_15-01-18.mp4</name>
                        <duration>714415</duration>
                        <rate>
                            <timebase>60</timebase>
                            <ntsc>FALSE</ntsc>
                        </rate>
                        <start>408786</start>
                        <end>453894</end>
                        <enabled>TRUE</enabled>
                        <in>587599</in>
                        <out>632707</out>
                        <file id="2021-04-17_15-01-18.mp4 2"/>
                        <sourcetrack>
                            <mediatype>audio</mediatype>
                            <trackindex>1</trackindex>
                        </sourcetrack>
                        <link>
                            <linkclipref>2021-04-17_15-01-18.mp4 15</linkclipref>
                        </link>
                        <link>
                            <linkclipref>2021-04-17_15-01-18.mp4 26</linkclipref>
                        </link>
                    </clipitem>
                    <clipitem id="2021-04-17_15-01-18.mp4 27">
                        <name>2021-04-17_15-01-18.mp4</name>
                        <duration>714415</duration>
                        <rate>
                            <timebase>60</timebase>
                            <ntsc>FALSE</ntsc>
                        </rate>
                        <start>453894</start>
                        <end>461349</end>
                        <enabled>TRUE</enabled>
                        <in>644438</in>
                        <out>651893</out>
                        <file id="2021-04-17_15-01-18.mp4 2"/>
                        <sourcetrack>
                            <mediatype>audio</mediatype>
                            <trackindex>1</trackindex>
                        </sourcetrack>
                        <link>
                            <linkclipref>2021-04-17_15-01-18.mp4 17</linkclipref>
                        </link>
                        <link>
                            <linkclipref>2021-04-17_15-01-18.mp4 27</linkclipref>
                        </link>
                    </clipitem>
                    <enabled>TRUE</enabled>
                    <locked>FALSE</locked>
                </track>
            </audio>
        </media>
    </sequence>
</xmeml>
