<?xml version="1.0" encoding="iso-8859-1"?>
<!-- Generator: Adobe Illustrator 19.0.0, SVG Export Plug-In . SVG Version: 6.00 Build 0)  -->
<svg version="1.1" id="Layer_1" xmlns="http://www.w3.org/2000/svg" xmlns:xlink="http://www.w3.org/1999/xlink" x="0px" y="0px"
	 viewBox="0 0 512 512" style="enable-background:new 0 0 512 512;" xml:space="preserve">
<g>
	<circle style="fill:#14B0BF;" cx="256" cy="256" r="256"/>
	<path style="fill:#3387B5;" d="M437.018,437.018c59.699-59.699,83.722-141.548,72.12-219.09L401.833,109.86L96.691,163.666
		l8.771,49.731l2.463-0.435l0.077,0.435h-2.54v168.397c0,6.38,3.036,12.032,7.67,15.77c0.916,1.137,112.067,112.067,112.579,112.579
		C300.913,519.05,379.31,494.725,437.018,437.018z"/>
	<path style="fill:#0F303F;" d="M415.309,381.788c0,11.192-9.16,20.352-20.352,20.352H125.809c-11.192,0-20.352-9.16-20.352-20.352
		V233.743c0-11.192,9.16-20.352,20.352-20.352h269.148c11.192,0,20.352,9.16,20.352,20.352V381.788z"/>
	<rect x="105.462" y="213.396" style="fill:#FFFFFF;" width="309.862" height="50.499"/>
	<path style="fill:#0F303F;" d="M156.001,220.314l-36.874,37.366h37.366l36.874-37.366H156.001z M311.322,220.314l-36.874,37.366
		h37.366l36.874-37.366H311.322z M207.775,220.314L170.9,257.679h37.366l36.874-37.366H207.775z M259.548,220.314l-36.874,37.366
		h37.366l36.874-37.366H259.548z M363.095,220.314l-36.874,37.366h37.366l36.874-37.366H363.095z M414.868,220.314l-36.874,37.366
		h37.315v-37.366H414.868z M105.462,220.314v37.366h0.246l36.874-37.366H105.462z"/>
	
		<rect x="98.721" y="136.353" transform="matrix(0.9848 -0.1736 0.1736 0.9848 -24.203 46.4881)" style="fill:#FFFFFF;" width="309.857" height="50.498"/>
	<path style="fill:#0F303F;" d="M316.467,131.937l42.803,30.397l36.797-6.487l-42.803-30.397L316.467,131.937z M163.502,158.904
		l42.803,30.397l36.797-6.487L200.3,152.417L163.502,158.904z M265.477,140.928l42.803,30.397l36.797-6.487l-42.803-30.397
		L265.477,140.928z M214.492,149.919l42.803,30.397l36.797-6.487l-42.803-30.397L214.492,149.919z M112.517,167.895l42.803,30.397
		l36.797-6.487l-42.803-30.397L112.517,167.895z M97.894,170.476l6.487,36.797l36.746-6.482l-42.803-30.397L97.894,170.476z
		 M366.479,123.116l42.803,30.397l0.241-0.041l-6.487-36.797L366.479,123.116z"/>
	<path style="fill:#FDC00F;" d="M394.634,317.379h-0.072v-36.552h-269.44v103.235h269.44v-62.172h0.072V317.379z M390.497,284.897
		v32.481h-101.13v-32.481L390.497,284.897L390.497,284.897z M284.856,284.897v32.481H177.05v-32.481L284.856,284.897
		L284.856,284.897z M129.193,379.991v-95.094h43.341v95.094H129.193z M177.05,379.991v-58.102h107.807v58.102L177.05,379.991
		L177.05,379.991z M390.497,379.991h-101.13v-58.102h101.125v58.102H390.497z"/>
</g>
<g>
</g>
<g>
</g>
<g>
</g>
<g>
</g>
<g>
</g>
<g>
</g>
<g>
</g>
<g>
</g>
<g>
</g>
<g>
</g>
<g>
</g>
<g>
</g>
<g>
</g>
<g>
</g>
<g>
</g>
</svg>
